<svg width="285" height="327" viewBox="0 0 285 327" fill="none" xmlns="http://www.w3.org/2000/svg">
<path d="M513.363 598.259C462.201 610.241 395.59 585.563 364.583 543.141L42.2933 102.2C11.2864 59.7773 27.6251 15.6748 78.7869 3.69366C129.949 -8.28745 196.56 16.3899 227.567 58.8122L549.857 499.754C580.864 542.176 564.525 586.278 513.363 598.259Z" fill="#B8F1DE"/>
<path d="M520.685 734.118C479.022 744.484 424.294 725.098 398.445 690.819L13.8029 180.721C-12.0457 146.441 0.774152 110.249 42.4367 99.8833C84.0993 89.5173 138.828 108.903 164.676 143.182L549.319 653.28C575.167 687.56 562.347 723.752 520.685 734.118Z" fill="#C495F7"/>
</svg>
