<svg width="2666" height="1213" viewBox="0 0 2666 1213" fill="none" xmlns="http://www.w3.org/2000/svg">
<path d="M501.738 555.206C450.576 567.187 383.965 542.509 352.958 500.087L75.2934 120.2C44.2864 77.7774 60.6251 33.6748 111.787 21.6937V21.6937C162.949 9.71254 229.56 34.3899 260.567 76.8122L538.232 456.7C569.239 499.122 552.9 543.225 501.738 555.206V555.206Z" fill="#B8F1DE"/>
<path d="M480.215 654.686C438.553 665.051 383.824 645.666 357.976 611.386L46.8031 198.721C20.9545 164.442 33.7743 128.25 75.4369 117.884V117.884C117.099 107.518 171.828 126.903 197.677 161.183L508.849 573.848C534.698 608.127 521.878 644.32 480.215 654.686V654.686Z" fill="#C495F7"/>
<path d="M2573.36 1058.26C2522.2 1070.24 2455.59 1045.56 2424.58 1003.14L2102.29 562.2C2071.29 519.777 2087.63 475.675 2138.79 463.694V463.694C2189.95 451.713 2256.56 476.39 2287.57 518.812L2609.86 959.754C2640.86 1002.18 2624.53 1046.28 2573.36 1058.26V1058.26Z" fill="#B8F1DE"/>
<path d="M2580.68 1194.12C2539.02 1204.48 2484.29 1185.1 2458.45 1150.82L2073.8 640.721C2047.95 606.442 2060.77 570.249 2102.44 559.883V559.883C2144.1 549.517 2198.83 568.903 2224.68 603.182L2609.32 1113.28C2635.17 1147.56 2622.35 1183.75 2580.68 1194.12V1194.12Z" fill="#C495F7"/>
</svg>
