<svg width="608" height="605" viewBox="0 0 608 605" fill="none" xmlns="http://www.w3.org/2000/svg">
<path d="M185.159 17.5332V116.286H43.3203L38.207 18.2195L185.159 17.5332Z" fill="#E0E0E0"/>
<path d="M38.207 18.2192L38.207 116.071L180.046 116.071V18.2192L38.207 18.2192Z" fill="white"/>
<path d="M180.719 116.744H37.5342V17.5466H180.719V116.744ZM38.8798 115.398H179.373V18.8922H38.8798V115.398Z" fill="#E0E0E0"/>
<path d="M164.68 30.3835H53.5742V103.92H164.68V30.3835Z" fill="white"/>
<path d="M164.68 30.3834H162.554H156.459L133.584 30.4776L53.6014 30.6391L53.9243 30.3162C53.9243 52.7741 53.9243 77.6811 53.9243 103.839L53.5745 103.49H164.68L164.411 103.772C164.411 81.3949 164.519 63.041 164.546 50.2579C164.546 43.8798 164.613 38.8876 164.626 35.4563C164.626 33.7609 164.626 32.4691 164.626 31.5676C164.626 30.666 164.626 30.222 164.626 30.222C164.626 30.222 164.626 30.6391 164.626 31.5676C164.626 32.496 164.626 33.734 164.626 35.4025C164.626 38.8069 164.626 43.7721 164.694 50.204C164.694 63.0141 164.788 81.4218 164.842 103.88V104.162H164.559H53.4534H53.1035V103.813C53.1035 77.6542 53.1035 52.7472 53.1035 30.2892V29.9663H53.4265L133.624 30.1278L156.499 30.2085H162.541H164.075L164.68 30.3834Z" fill="#E0E0E0"/>
<path d="M38.207 17.9502C39.0758 18.3665 39.8857 18.8959 40.6156 19.5245C42.0689 20.5741 44.0469 22.0543 46.1864 23.7632C48.3259 25.4721 50.2232 27.0868 51.5688 28.2978C52.3354 28.9 53.0187 29.6013 53.6006 30.3835C53.4661 30.5315 50.0617 27.6923 45.7962 24.3149C43.1353 22.3547 40.6006 20.229 38.207 17.9502Z" fill="#E0E0E0"/>
<path d="M180.046 18.2195C177.714 20.5146 175.218 22.6372 172.578 24.5707C170.087 26.6942 167.448 28.6368 164.68 30.3837C167.013 28.0858 169.509 25.9588 172.148 24.019C174.641 21.9022 177.28 19.9642 180.046 18.2195Z" fill="#E0E0E0"/>
<path d="M179.938 116.084L164.114 103.274L179.938 116.084Z" fill="white"/>
<path d="M164.114 103.274C166.943 105.132 169.64 107.183 172.188 109.41C174.903 111.476 177.475 113.723 179.885 116.138C177.052 114.286 174.354 112.235 171.811 110.002C169.096 107.937 166.524 105.689 164.114 103.274Z" fill="#E0E0E0"/>
<path d="M38.207 116.071C40.518 113.805 42.9866 111.705 45.5943 109.787C48.0541 107.685 50.6674 105.769 53.4123 104.055C51.0927 106.322 48.615 108.422 45.998 110.339C43.5469 112.44 40.9427 114.356 38.207 116.071Z" fill="#E0E0E0"/>
<path d="M76.126 53.299V77.9233H146.043V53.299H76.126Z" fill="#E0E0E0"/>
<path d="M329.878 108.078H252.815V219.789H329.878V108.078Z" fill="#E0E0E0"/>
<path d="M326.016 108.078H248.954V219.789H326.016V108.078Z" fill="#F5F5F5"/>
<path d="M316.436 120.175H258.521V207.679H316.436V120.175Z" fill="white"/>
<path d="M316.463 207.679V207.249C316.463 206.966 316.463 206.549 316.463 206.011C316.463 204.907 316.463 203.319 316.463 201.207C316.463 197.022 316.463 190.913 316.463 183.189C316.463 167.755 316.463 145.903 316.368 120.175L316.557 120.364H258.696L258.911 120.162C258.911 153.169 258.911 183.606 258.911 207.625L258.737 207.464L300.894 207.545H312.547H315.601H316.463H315.453H312.426H300.813L258.548 207.639H258.387V207.464C258.387 183.405 258.387 152.967 258.387 120V119.785H258.602H316.463H316.664V119.973C316.664 145.755 316.584 167.648 316.57 183.109C316.57 190.819 316.57 196.914 316.57 201.099C316.57 203.171 316.57 204.759 316.57 205.849C316.57 206.387 316.57 206.791 316.57 207.074C316.57 207.356 316.463 207.679 316.463 207.679Z" fill="#E0E0E0"/>
<path d="M326.23 108.078C325.841 108.78 325.391 109.446 324.885 110.07C323.997 111.267 322.718 112.895 321.265 114.658C319.812 116.421 318.466 117.982 317.457 119.085C316.941 119.71 316.374 120.29 315.762 120.821C316.2 120.139 316.695 119.495 317.242 118.897L320.942 114.389L324.656 109.881C325.132 109.239 325.658 108.636 326.23 108.078Z" fill="#E0E0E0"/>
<path d="M316.732 207.396C319.616 211.974 323.006 216.213 326.838 220.032L316.732 207.396Z" fill="white"/>
<path d="M326.838 220.032C326.193 219.564 325.602 219.027 325.075 218.43C323.73 217.068 322.459 215.635 321.267 214.138C320.07 212.641 318.952 211.082 317.917 209.469C317.455 208.819 317.058 208.125 316.732 207.396C317.256 207.996 317.733 208.635 318.159 209.307C319.006 210.491 320.204 212.133 321.59 213.869C322.976 215.605 324.281 217.139 325.29 218.229C325.85 218.79 326.367 219.393 326.838 220.032Z" fill="#E0E0E0"/>
<path d="M248.941 219.695L259.033 207.235L248.941 219.695Z" fill="white"/>
<path d="M259.033 207.235C257.519 209.442 255.889 211.566 254.149 213.6C252.518 215.719 250.78 217.753 248.941 219.695C250.455 217.488 252.086 215.364 253.826 213.33C255.457 211.211 257.195 209.177 259.033 207.235Z" fill="#E0E0E0"/>
<path d="M248.954 108.078C250.695 109.936 252.33 111.89 253.852 113.931C255.483 115.891 257.011 117.934 258.427 120.054C256.686 118.188 255.046 116.23 253.516 114.187C251.883 112.237 250.36 110.198 248.954 108.078Z" fill="#E0E0E0"/>
<path d="M298.392 137.937H279.002V192.999H298.392V137.937Z" fill="#E0E0E0"/>
<path d="M320.135 321.059H181.768V582.629H320.135V321.059Z" fill="#E0E0E0"/>
<path d="M279.069 321.059H140.701V582.629H279.069V321.059Z" fill="#F5F5F5"/>
<path d="M268.896 374.896H150.12V333.425H268.896V374.896ZM151.573 373.429H267.429V334.891H151.573V373.429Z" fill="#E0E0E0"/>
<path d="M187.771 334.165H232.848V335.766C232.848 337.533 232.146 339.227 230.897 340.476C229.648 341.725 227.954 342.427 226.187 342.427H194.431C192.665 342.427 190.97 341.725 189.721 340.476C188.472 339.227 187.771 337.533 187.771 335.766V334.165Z" fill="#EBEBEB"/>
<path d="M268.896 427.563H150.12V386.091H268.896V427.563ZM151.573 426.096H267.429V387.558H151.573V426.096Z" fill="#E0E0E0"/>
<path d="M187.771 386.831H232.848V388.433C232.848 390.199 232.146 391.893 230.897 393.142C229.648 394.392 227.954 395.093 226.187 395.093H194.431C192.665 395.093 190.97 394.392 189.721 393.142C188.472 391.893 187.771 390.199 187.771 388.433V386.831Z" fill="#EBEBEB"/>
<path d="M268.896 480.229H150.12V438.771H268.896V480.229ZM151.573 478.776H267.429V440.225H151.573V478.776Z" fill="#E0E0E0"/>
<path d="M187.771 439.498H232.848V441.099C232.848 442.866 232.146 444.56 230.897 445.809C229.648 447.058 227.954 447.76 226.187 447.76H194.431C192.665 447.76 190.97 447.058 189.721 445.809C188.472 444.56 187.771 442.866 187.771 441.099V439.498Z" fill="#EBEBEB"/>
<path d="M268.896 532.896H150.12V491.438H268.896V532.896ZM151.573 531.442H267.429V492.891H151.573V531.442Z" fill="#E0E0E0"/>
<path d="M187.771 492.165H232.848V493.766C232.848 495.532 232.146 497.227 230.897 498.476C229.648 499.725 227.954 500.426 226.187 500.426H194.431C192.665 500.426 190.97 499.725 189.721 498.476C188.472 497.227 187.771 495.532 187.771 493.766V492.165Z" fill="#EBEBEB"/>
<path d="M284.867 311.263H134.564V324.288H284.867V311.263Z" fill="#EBEBEB"/>
<path d="M330.067 311.263H284.868V324.288H330.067V311.263Z" fill="#E0E0E0"/>
<path d="M147.967 582.616H140.701V595.977H147.967V582.616Z" fill="#E0E0E0"/>
<path d="M192.897 582.616H185.631V595.977H192.897V582.616Z" fill="#E0E0E0"/>
<path d="M274.964 582.616H267.698V595.977H274.964V582.616Z" fill="#E0E0E0"/>
<path d="M316.004 582.616H308.738V595.977H316.004V582.616Z" fill="#E0E0E0"/>
<path d="M268.815 276.479L282.822 312.312L274.116 312.272L267.133 290.245L268.815 276.479Z" fill="#E0E0E0"/>
<path d="M220.993 243.378L216.176 312.03L265.882 313.066L271.48 243.378H220.993Z" fill="#EBEBEB"/>
<path d="M225.957 248.895L221.947 306.042L258.911 307.778L264.064 248.558L225.957 248.895Z" fill="#FAFAFA"/>
<path d="M234.072 256.981L231.071 297.147H251.457L255.05 256.981H234.072Z" fill="#E0E0E0"/>
<path d="M580.253 8.93457H397.764V336.762H580.253V8.93457Z" fill="#EBEBEB"/>
<path d="M571.09 18.4482H405.057V327.006H571.09V18.4482Z" fill="#FAFAFA"/>
<path d="M571.076 22.0813L405.057 233.272V18.4482H571.076V22.0813Z" fill="#F5F5F5"/>
<path d="M574.682 107.204H405.057V110.487H574.682V107.204Z" fill="#EBEBEB"/>
<path d="M574.682 180.686H405.057V183.97H574.682V180.686Z" fill="#EBEBEB"/>
<path d="M574.682 254.169H405.057V257.452H574.682V254.169Z" fill="#EBEBEB"/>
<path d="M483.868 108.845V335.753H492.251V108.845H483.868Z" fill="#EBEBEB"/>
<path d="M440.823 18.4482H437.028V108.859H440.823V18.4482Z" fill="#EBEBEB"/>
<path d="M473.588 18.4482H469.793V108.859H473.588V18.4482Z" fill="#EBEBEB"/>
<path d="M506.366 18.4482H502.571V108.859H506.366V18.4482Z" fill="#EBEBEB"/>
<path d="M539.145 18.4482H535.351V108.859H539.145V18.4482Z" fill="#EBEBEB"/>
<path d="M397.763 3.37744H390.039V338.794H397.763V3.37744Z" fill="#F5F5F5"/>
<path d="M587.977 339.722L580.253 336.775V3.37744H587.977V339.722Z" fill="#E0E0E0"/>
<path d="M587.963 0H390.039V8.9482H587.963V0Z" fill="#E0E0E0"/>
<path d="M593.198 340.825H384.563V349.155H593.198V340.825Z" fill="#E0E0E0"/>
<path d="M580.253 336.775L593.198 340.826H384.563L397.764 336.775H580.253Z" fill="#EBEBEB"/>
<path d="M32.9862 363.943C23.4055 364.145 17.606 375.085 17.1216 384.665C16.6372 394.246 19.2342 404.028 16.8794 413.313C13.8922 425.127 3.42345 433.995 0.732264 445.863C-2.47025 459.857 5.80515 473.811 6.86817 488.141C7.3795 495.098 6.18192 502.23 7.81009 509.025C9.33162 514.734 12.7151 519.772 17.4243 523.341C22.1335 526.909 27.899 528.804 33.807 528.725C39.6894 528.328 45.272 525.983 49.6729 522.06C54.0737 518.137 57.0419 512.859 58.1084 507.061C59.8308 496.215 54.5426 485.033 56.857 474.295C58.5794 466.356 64.325 459.413 64.4327 451.299C64.5538 441.638 56.6821 433.672 54.8386 424.185C52.9951 414.699 57.3549 405.145 57.6105 395.484C58.0546 378.153 50.2367 364.952 32.9323 363.943" fill="#EBEBEB"/>
<path d="M37.7356 409.182C37.7713 409.697 37.7713 410.214 37.7356 410.729C37.7356 411.806 37.5741 413.272 37.453 415.116C37.157 419.018 36.7533 424.535 36.2554 431.263C35.2328 444.907 33.8333 463.759 32.4339 484.589C31.0345 505.419 29.8504 524.324 28.9892 537.982C28.5721 544.71 28.2357 550.254 27.9935 554.129C27.8589 555.973 27.7647 557.439 27.684 558.529C27.6643 559.044 27.6104 559.556 27.5225 560.063C27.473 559.549 27.473 559.03 27.5225 558.516C27.5225 557.439 27.6032 555.959 27.6571 554.116C27.832 550.2 28.0742 544.696 28.3702 537.969C29.0296 524.284 30.0791 505.405 31.492 484.562C32.9049 463.719 34.3985 444.88 35.5288 431.249C36.1478 424.521 36.6591 419.004 37.0089 415.102C37.2108 413.259 37.3588 411.806 37.4665 410.716C37.5196 410.199 37.6096 409.686 37.7356 409.182Z" fill="#E0E0E0"/>
<path d="M41.1537 595.735H20.8218C15.4173 595.735 10.2334 593.592 6.40688 589.775C2.5803 585.959 0.423401 580.78 0.409149 575.376L0.409149 534.631H61.5664L61.5664 575.376C61.5522 580.78 59.3953 585.959 55.5687 589.775C51.7421 593.592 46.5582 595.735 41.1537 595.735Z" fill="#E0E0E0"/>
<path d="M0.40918 549.621C0.757095 549.818 1.08204 550.053 1.37801 550.321L4.0692 552.434L13.4884 560.144H13.152L30.7927 549.379L30.9811 549.271L31.1695 549.393L47.5857 560.157H47.2493L57.57 552.461L60.49 550.334C60.822 550.073 61.1779 549.843 61.553 549.648C61.2603 549.955 60.9405 550.234 60.5976 550.483L57.7853 552.73L47.6126 560.628L47.4377 560.763L47.2628 560.642L30.7792 549.877H31.1964L13.4884 560.561L13.3134 560.669L13.152 560.534L3.89427 552.635L1.33764 550.402C1.00927 550.165 0.698929 549.904 0.40918 549.621Z" fill="white"/>
<path d="M0.40918 543.499C0.757095 543.696 1.08204 543.93 1.37801 544.199L4.0692 546.311L13.4884 554.022H13.152L30.7927 543.257L30.9811 543.136L31.1695 543.257L47.5857 554.022H47.2493L57.57 546.325L60.5034 544.172C60.8335 543.904 61.1896 543.669 61.5664 543.472C61.2814 543.79 60.9608 544.075 60.6111 544.32L57.7988 546.554L47.6261 554.466L47.4512 554.587L47.2762 554.479L30.7927 543.714H31.1964L13.4884 554.398L13.3134 554.506L13.152 554.371L3.89427 546.459L1.33764 544.226C1.00748 544.011 0.696807 543.768 0.40918 543.499Z" fill="white"/>
<path d="M0.40918 555.838C0.757095 556.035 1.08204 556.269 1.37801 556.538L4.0692 558.65L13.4884 566.361H13.152L30.7927 555.596L30.9811 555.488L31.1695 555.609L47.5857 566.374H47.2493L57.57 558.677L60.49 556.565C60.82 556.297 61.1762 556.062 61.553 555.865C61.2647 556.176 60.9445 556.456 60.5976 556.699L57.7988 558.973L47.6261 566.872L47.4512 567.007L47.2762 566.885L30.7927 556.134H31.1964L13.4884 566.805L13.3134 566.912L13.152 566.778L3.82699 558.973L1.27036 556.74C0.960785 556.462 0.67289 556.16 0.40918 555.838Z" fill="white"/>
<path d="M600.209 594.026C600.209 594.228 469.888 594.376 309.17 594.376C148.452 594.376 18.1045 594.228 18.1045 594.026C18.1045 593.825 148.385 593.677 309.17 593.677C469.955 593.677 600.209 593.838 600.209 594.026Z" fill="#263238"/>
<path d="M332.851 53.8774C330.158 55.8669 327.33 57.6655 324.387 59.2598C321.563 61.0454 318.618 62.6325 315.573 64.0098C318.264 62.0185 321.092 60.2198 324.037 58.6274C326.863 56.845 329.808 55.2579 332.851 53.8774Z" fill="#263238"/>
<path d="M311.362 31.312C309.452 35.428 307.323 39.4391 304.984 43.3282C302.86 47.3395 300.529 51.238 298.001 55.0079C297.839 54.9137 300.692 49.5314 304.379 42.9783C306.503 38.9715 308.834 35.0775 311.362 31.312Z" fill="#263238"/>
<path d="M283.738 24.3015C283.963 28.6045 283.963 32.9163 283.738 37.2192C283.714 41.5264 283.462 45.8293 282.984 50.11C282.742 45.8075 282.742 41.4948 282.984 37.1923C282.993 32.8846 283.244 28.5809 283.738 24.3015Z" fill="#263238"/>
<path d="M261.898 52.2497C259.638 50.7005 257.514 48.963 255.547 47.0557C253.425 45.3231 251.454 43.4146 249.653 41.3503C251.917 42.8943 254.042 44.6322 256.005 46.5443C258.13 48.2725 260.102 50.1814 261.898 52.2497Z" fill="#263238"/>
<path d="M247.366 66.7818C246.508 66.7765 245.657 66.6264 244.85 66.3377C242.871 65.7767 240.958 65.0053 239.144 64.0368C237.332 63.0675 235.631 61.9034 234.071 60.5651C233.386 60.0467 232.791 59.4194 232.309 58.7082C232.457 58.5467 235.296 61.1976 239.481 63.4178C243.665 65.638 247.42 66.5665 247.366 66.7818Z" fill="#263238"/>
<path d="M506.863 338.161L516.794 348.159C516.794 348.159 521.073 359.166 522.674 362.18C525.984 368.383 526.536 368.101 527.195 367.563C528.958 366.217 521.813 356.421 524.504 357.632C527.195 358.843 531.878 370.604 533.654 369.11C535.982 367.145 528.272 357 527.72 356.152C527.168 355.304 528.42 354.362 528.904 355.21C529.604 356.421 537.26 368.975 539.561 367.078C540.907 366.015 538.74 363.902 538.74 363.902C538.74 363.902 530.667 352.68 531.824 351.792C532.981 350.904 537.893 357.336 539.413 359.624C540.934 361.911 542.589 362.086 543.033 360.592C543.342 359.583 538.875 352.519 537.328 350.245C535.78 347.971 531.434 341.996 535.982 343.221C540.53 344.445 544.513 343.665 545.401 342.709C545.595 342.469 545.708 342.175 545.724 341.867C545.741 341.559 545.66 341.254 545.493 340.995C545.326 340.735 545.082 340.535 544.795 340.423C544.508 340.31 544.193 340.291 543.894 340.368C542.303 340.472 540.705 340.359 539.144 340.032C537.879 339.811 536.66 339.379 535.538 338.753C534.192 338.013 533.17 337.34 532.268 336.748L517.319 321.557" fill="#936754"/>
<path d="M403.831 111.281C396.592 113.972 390.16 125.625 389.891 133.994C389.743 138.879 390.55 144.544 387.025 147.908C383.93 150.868 378.951 150.464 375.049 152.173C372.911 153.153 371.112 154.745 369.878 156.747C368.645 158.749 368.033 161.072 368.119 163.422C368.267 165.979 369.249 168.522 368.778 171.052C367.702 176.73 360.409 178.574 356.856 183.162C353.6 187.347 353.99 193.577 356.708 198.112C359.426 202.646 364.082 205.728 368.913 207.908C376.412 211.29 384.607 212.844 392.824 212.442C398.677 212.146 404.934 210.626 408.837 206.293C413.883 200.763 413.883 192.447 413.788 184.952C413.512 161.587 415.196 138.24 418.821 115.156" fill="#263238"/>
<path d="M302.091 98.6051L293.318 87.5713C293.318 87.5713 290.277 76.1606 289.025 72.985C286.428 66.4589 285.836 66.6742 285.123 67.1048C283.226 68.2754 289.254 78.7711 286.657 77.264C284.06 75.7569 280.763 63.5659 278.826 64.8576C276.296 66.5396 282.862 77.4255 283.293 78.3943C283.723 79.3631 282.405 80.0763 282.015 79.1882C281.449 77.8426 275.287 64.5885 272.73 66.2301C271.384 67.1317 273.201 69.473 273.201 69.473C273.201 69.473 279.929 81.5026 278.731 82.2292C277.534 82.9559 273.349 76.0395 272.003 73.604C270.658 71.1685 269.124 70.8052 268.518 72.2584C268.101 73.2272 271.748 80.7895 273.039 83.1712C274.331 85.5529 277.991 92.0117 273.591 90.2894C269.191 88.567 265.168 88.9438 264.172 89.7646C263.955 89.9819 263.812 90.2618 263.762 90.565C263.713 90.8681 263.76 91.179 263.897 91.454C264.033 91.729 264.253 91.9541 264.524 92.0977C264.796 92.2412 265.106 92.2958 265.41 92.2539C267.003 92.3262 268.578 92.616 270.093 93.1151C271.334 93.4571 272.508 94.0077 273.564 94.7433C274.775 95.6179 275.771 96.4118 276.592 97.0981L289.765 113.837" fill="#936754"/>
<path d="M522.875 315.421C520.09 308.41 460.978 207.437 460.978 207.437C459.202 202.122 426.733 185.261 426.733 185.261C426.733 185.261 371.819 160.866 365.912 153.142C360.005 145.418 331.074 110.002 325.167 106.463C321.256 104.246 316.907 102.909 312.425 102.548L298.107 89.3608L279.848 104.297C281.624 105.481 289.267 120.296 289.267 120.296C289.267 120.296 290.801 129.836 294.945 136.322C299.09 142.808 362.736 204.046 362.736 204.046C362.736 204.046 360.556 257.574 362.279 268.903C364.822 285.548 376.623 292.29 376.623 292.29C377.484 294.187 438.143 289.397 438.143 289.397C438.143 289.397 449.231 288.132 449.231 277.865L450.038 265.755C456.887 279.345 477.879 320.749 481.687 325.607C486.262 331.433 502.019 337.058 502.019 337.058L511.667 343.665L527.397 331.716C526.325 326.173 524.813 320.724 522.875 315.421Z" fill="#BF87F8"/>
<path d="M379.113 242.207C377.768 243.553 374.901 242.907 372.802 240.754C370.703 238.601 370.111 235.775 371.524 234.416C372.937 233.057 375.736 233.716 377.821 235.869C379.907 238.022 380.486 240.861 379.113 242.207Z" fill="#FAFAFA"/>
<path d="M391.425 218C389.622 217.287 389.151 214.232 390.362 211.178C391.573 208.123 394.008 206.239 395.811 206.953C397.614 207.666 398.085 210.707 396.874 213.761C395.663 216.816 393.228 218.713 391.425 218Z" fill="#FAFAFA"/>
<path d="M380.283 191.936C378.709 193.066 376.246 192.259 374.672 190.133C373.098 188.007 373.165 185.383 374.739 184.239C376.314 183.095 378.776 183.916 380.35 186.042C381.925 188.168 381.858 190.792 380.283 191.936Z" fill="#FAFAFA"/>
<path d="M355.121 166.854C355.48 167.653 355.584 168.544 355.418 169.405C355.253 170.266 354.827 171.055 354.197 171.664C353.568 172.274 352.766 172.675 351.9 172.813C351.034 172.951 350.147 172.819 349.36 172.434C348.572 172.05 347.922 171.433 347.497 170.666C347.073 169.899 346.895 169.02 346.988 168.149C347.081 167.277 347.44 166.455 348.016 165.795C348.593 165.135 349.358 164.668 350.209 164.459C351.179 164.128 352.239 164.195 353.159 164.643C354.079 165.092 354.785 165.887 355.121 166.854Z" fill="#FAFAFA"/>
<path d="M345.768 145.392C344.877 145.526 343.965 145.381 343.159 144.976C342.354 144.571 341.693 143.926 341.269 143.13C340.846 142.334 340.679 141.426 340.793 140.531C340.906 139.637 341.294 138.799 341.904 138.135C342.513 137.47 343.314 137.01 344.195 136.82C345.076 136.629 345.995 136.716 346.825 137.069C347.655 137.422 348.355 138.024 348.828 138.792C349.302 139.559 349.525 140.455 349.469 141.355C349.495 142.376 349.124 143.367 348.434 144.12C347.743 144.873 346.788 145.329 345.768 145.392Z" fill="#FAFAFA"/>
<path d="M323.11 147.773C322.814 149.684 320.176 150.868 317.229 150.464C314.283 150.061 312.13 148.096 312.426 146.172C312.722 144.248 315.346 143.077 318.292 143.481C321.239 143.884 323.406 145.876 323.11 147.773Z" fill="#FAFAFA"/>
<path d="M313.272 118.507C312.601 118.409 311.974 118.115 311.469 117.663C310.964 117.21 310.604 116.618 310.434 115.962C310.264 115.305 310.292 114.614 310.513 113.973C310.735 113.332 311.141 112.771 311.68 112.359C312.219 111.948 312.867 111.705 313.544 111.661C314.22 111.616 314.895 111.773 315.483 112.11C316.071 112.448 316.547 112.951 316.85 113.558C317.153 114.164 317.271 114.847 317.188 115.52C317.064 116.435 316.582 117.263 315.848 117.823C315.114 118.383 314.187 118.629 313.272 118.507Z" fill="#FAFAFA"/>
<path d="M294.933 112.936C294.314 113.312 293.598 113.495 292.874 113.461C292.151 113.427 291.455 113.178 290.874 112.746C290.294 112.314 289.856 111.718 289.616 111.035C289.376 110.352 289.346 109.613 289.53 108.912C289.713 108.212 290.101 107.582 290.645 107.104C291.188 106.626 291.862 106.321 292.58 106.229C293.298 106.136 294.027 106.26 294.674 106.585C295.321 106.91 295.856 107.42 296.211 108.051C296.687 108.869 296.819 109.842 296.58 110.757C296.34 111.673 295.748 112.456 294.933 112.936Z" fill="#FAFAFA"/>
<path d="M400.83 180.74C400.459 181.258 399.944 181.656 399.349 181.885C398.754 182.114 398.105 182.164 397.482 182.029C396.858 181.894 396.288 181.58 395.842 181.125C395.395 180.671 395.091 180.095 394.967 179.47C394.843 178.844 394.904 178.196 395.144 177.605C395.383 177.015 395.79 176.507 396.315 176.144C396.839 175.782 397.458 175.58 398.095 175.565C398.733 175.55 399.361 175.721 399.902 176.058C400.646 176.556 401.161 177.329 401.335 178.207C401.509 179.085 401.328 179.996 400.83 180.74Z" fill="#FAFAFA"/>
<path d="M424.808 237.834C424.175 238.356 423.398 238.673 422.581 238.743C421.763 238.813 420.943 238.632 420.231 238.224C419.519 237.816 418.949 237.201 418.595 236.46C418.242 235.72 418.122 234.889 418.253 234.079C418.383 233.269 418.757 232.517 419.326 231.925C419.894 231.333 420.629 230.929 421.433 230.765C422.237 230.602 423.072 230.687 423.827 231.01C424.581 231.333 425.219 231.878 425.656 232.573C426.238 233.384 426.475 234.392 426.316 235.378C426.157 236.364 425.615 237.246 424.808 237.834Z" fill="#FAFAFA"/>
<path d="M439.866 254.627C438.655 256.134 436.031 256.053 433.999 254.439C431.968 252.824 431.308 250.281 432.519 248.76C433.73 247.24 436.341 247.334 438.373 248.962C440.404 250.59 441.077 253.12 439.866 254.627Z" fill="#FAFAFA"/>
<path d="M393.618 286.692C392.849 286.856 392.049 286.784 391.323 286.484C390.596 286.184 389.978 285.671 389.549 285.012C389.12 284.354 388.9 283.581 388.919 282.795C388.938 282.009 389.195 281.248 389.655 280.611C390.116 279.974 390.758 279.492 391.498 279.227C392.239 278.963 393.041 278.929 393.801 279.13C394.561 279.331 395.242 279.757 395.755 280.353C396.267 280.949 396.587 281.686 396.673 282.467C396.824 283.432 396.588 284.418 396.016 285.209C395.444 286.001 394.582 286.534 393.618 286.692Z" fill="#FAFAFA"/>
<path d="M404.195 261.516C402.849 262.862 399.808 262.081 397.467 259.727C395.125 257.372 394.318 254.344 395.677 252.999C397.036 251.653 400.064 252.434 402.405 254.788C404.746 257.143 405.554 260.157 404.195 261.516Z" fill="#FAFAFA"/>
<path d="M374.322 276.466C372.385 276.466 370.73 274.205 370.609 271.259C370.487 268.312 371.954 265.876 373.905 265.795C375.856 265.715 377.498 268.043 377.606 270.989C377.713 273.936 376.179 276.399 374.322 276.466Z" fill="#FAFAFA"/>
<path d="M436.22 285.441C434.659 286.598 431.86 285.441 429.936 282.871C428.012 280.301 427.729 277.287 429.29 276.143C430.851 274.999 433.65 276.143 435.561 278.713C437.472 281.283 437.741 284.284 436.22 285.441Z" fill="#FAFAFA"/>
<path d="M464.369 259.834C463.131 261.314 460.413 261.086 458.287 259.323C456.161 257.56 455.448 254.923 456.686 253.429C457.924 251.936 460.642 252.164 462.768 253.941C464.894 255.717 465.607 258.341 464.369 259.834Z" fill="#FAFAFA"/>
<path d="M478.983 261.597C477.099 261.126 476.13 258.543 476.816 255.824C477.502 253.106 479.575 251.276 481.445 251.788C483.315 252.299 484.298 254.842 483.611 257.56C482.925 260.278 480.853 262.014 478.983 261.597Z" fill="#FAFAFA"/>
<path d="M495.52 313.591C493.717 312.891 493.313 309.635 494.605 306.338C495.897 303.041 498.4 300.956 500.203 301.628C502.006 302.301 502.423 305.585 501.131 308.895C499.839 312.205 497.323 314.291 495.52 313.591Z" fill="#FAFAFA"/>
<path d="M518.22 330.222C517.535 330.866 516.642 331.243 515.703 331.285C514.767 331.372 513.826 331.165 513.012 330.693C512.223 330.229 511.591 329.54 511.196 328.715C510.759 327.889 510.644 326.93 510.873 326.024C511.011 325.551 511.271 325.122 511.628 324.782C511.985 324.442 512.425 324.202 512.905 324.086C514.142 323.816 515.435 324.018 516.531 324.653C517.626 325.288 518.445 326.31 518.825 327.518C518.966 327.982 518.985 328.476 518.879 328.95C518.773 329.424 518.546 329.862 518.22 330.222Z" fill="#FAFAFA"/>
<path d="M454.654 217.475C456.498 216.883 458.906 219.278 460.036 222.857C461.167 226.437 460.561 229.747 458.691 230.326C456.821 230.904 454.452 228.509 453.309 224.943C452.165 221.377 452.811 218.054 454.654 217.475Z" fill="#FAFAFA"/>
<path d="M509.393 336.829C510.91 338.684 512.775 340.224 514.883 341.364L509.393 336.829Z" fill="#455A64"/>
<path d="M514.883 341.364C513.676 341.11 512.568 340.512 511.694 339.642C510.676 338.941 509.878 337.966 509.393 336.829C509.554 336.695 510.644 337.866 512.084 339.09C513.524 340.315 514.977 341.189 514.883 341.364Z" fill="#263238"/>
<path d="M519.284 337.757C519.163 337.906 517.938 337.179 516.794 336.035C515.651 334.891 514.789 333.775 514.937 333.64C515.085 333.505 516.081 334.393 517.279 335.524C518.476 336.654 519.405 337.609 519.284 337.757Z" fill="#263238"/>
<path d="M523.522 334.676C523.374 334.797 522.485 334.03 521.638 332.86C520.79 331.689 520.292 330.613 520.494 330.518C520.696 330.424 521.369 331.312 522.203 332.456C523.037 333.6 523.683 334.542 523.522 334.676Z" fill="#263238"/>
<path d="M448.896 237.147C449.243 238.624 449.464 240.128 449.555 241.642C449.851 244.427 450.147 248.37 450.281 252.568C450.416 256.766 450.376 260.722 450.281 263.521C450.287 265.041 450.161 266.558 449.905 268.056C449.766 266.548 449.726 265.034 449.784 263.521C449.784 260.722 449.784 256.793 449.595 252.595C449.407 248.397 449.245 244.521 449.07 241.682C448.913 240.176 448.854 238.661 448.896 237.147Z" fill="#263238"/>
<path d="M408.958 292.115C408.288 291.953 407.666 291.635 407.141 291.187C404.418 289.221 402.539 286.299 401.88 283.005C401.69 282.345 401.658 281.649 401.786 280.974C402.355 283.141 403.21 285.222 404.329 287.163C405.645 289.012 407.202 290.677 408.958 292.115Z" fill="#263238"/>
<path d="M415.524 283.221C415.894 284.596 415.894 286.044 415.524 287.419C415.395 288.836 414.899 290.195 414.084 291.362C414.233 290 414.48 288.651 414.824 287.325C414.956 285.941 415.19 284.57 415.524 283.221Z" fill="#263238"/>
<path d="M289.402 112.694C287.96 111.113 286.688 109.386 285.607 107.54C284.336 105.817 283.253 103.963 282.378 102.01C283.834 103.581 285.112 105.309 286.186 107.163C287.456 108.884 288.535 110.738 289.402 112.694Z" fill="#263238"/>
<path d="M294.758 107.055C293.328 105.733 292.059 104.247 290.976 102.628C289.71 101.144 288.626 99.5132 287.747 97.7708C289.179 99.0962 290.448 100.587 291.528 102.211C292.798 103.688 293.883 105.315 294.758 107.055Z" fill="#263238"/>
<path d="M300.664 99.4529C299.323 98.7084 298.102 97.7647 297.044 96.654C295.845 95.7285 294.789 94.6313 293.909 93.3977C295.239 94.1098 296.454 95.0169 297.515 96.0889C298.729 97.0448 299.79 98.179 300.664 99.4529Z" fill="#263238"/>
<path d="M398.543 585.67L398.26 570.021L427.581 569.308L428.24 592.183L426.424 592.344C418.35 592.99 385.302 595.035 379.853 593.569C373.73 591.9 398.543 585.67 398.543 585.67Z" fill="#BF87F8"/>
<g opacity="0.4">
<path d="M417.569 592.223C417.937 589.741 419.213 587.483 421.149 585.885C423.05 584.293 425.48 583.472 427.957 583.584L428.159 591.779L417.569 592.223Z" fill="black"/>
</g>
<path opacity="0.4" d="M386.433 589.155C386.433 589.155 377.753 591.846 378.884 593.3C380.014 594.753 413.479 593.865 428.213 592.196L428.146 591.55L389.124 592.896C389.124 592.896 388.128 589.182 386.433 589.155Z" fill="black"/>
<path d="M428.591 591.51C428.428 591.555 428.261 591.577 428.093 591.577L426.653 591.712L421.271 592.075C416.776 592.344 410.506 592.64 403.684 592.815C396.861 592.99 390.591 593.03 386.083 592.976L380.701 592.896H386.083C390.591 592.896 396.848 592.802 403.684 592.627C410.519 592.452 416.763 592.196 421.257 591.981L426.639 591.725H428.093L428.591 591.51Z" fill="#263238"/>
<path d="M389.125 593.313C388.716 591.508 387.676 589.909 386.191 588.805C387.114 589.113 387.888 589.757 388.358 590.608C388.929 591.389 389.201 592.349 389.125 593.313Z" fill="#263238"/>
<path d="M397.656 588.711C397.575 588.711 397.158 588.267 396.714 587.608C396.27 586.948 395.974 586.356 396.054 586.262C396.135 586.168 396.552 586.706 396.996 587.365C397.44 588.025 397.736 588.657 397.656 588.711Z" fill="#263238"/>
<path d="M399.996 587.392C399.996 587.473 399.471 587.177 398.946 586.733C398.422 586.289 398.072 585.872 398.126 585.791C398.179 585.71 398.664 586.02 399.175 586.464C399.686 586.908 400.063 587.325 399.996 587.392Z" fill="#263238"/>
<path d="M401.436 584.54C400.948 584.728 400.424 584.806 399.902 584.768C399.388 584.839 398.865 584.798 398.368 584.647C398.861 584.501 399.38 584.464 399.889 584.54C400.397 584.415 400.928 584.415 401.436 584.54Z" fill="#263238"/>
<path d="M401.894 582.629C401.397 582.977 400.805 583.165 400.198 583.167C399.605 583.272 398.994 583.207 398.436 582.979C399.007 582.866 399.589 582.812 400.171 582.817C400.739 582.703 401.315 582.64 401.894 582.629Z" fill="#263238"/>
<path d="M396.606 586.181C395.983 586.294 395.345 586.294 394.722 586.181C394.038 586.116 393.362 585.985 392.703 585.791C392.3 585.694 391.911 585.545 391.546 585.347C391.432 585.29 391.331 585.21 391.248 585.113C391.164 585.016 391.101 584.903 391.062 584.782C391.025 584.642 391.031 584.494 391.079 584.357C391.127 584.221 391.215 584.101 391.331 584.015C391.789 583.78 392.293 583.65 392.807 583.634C393.321 583.617 393.833 583.715 394.305 583.919C394.777 584.124 395.198 584.43 395.538 584.817C395.877 585.203 396.127 585.66 396.269 586.155C396.324 586.319 396.347 586.493 396.336 586.666C396.129 586.089 395.824 585.552 395.435 585.078C394.992 584.599 394.423 584.254 393.793 584.082C393.427 583.964 393.04 583.921 392.656 583.956C392.272 583.99 391.899 584.102 391.56 584.284C391.264 584.513 391.385 584.863 391.721 585.051C392.063 585.234 392.424 585.378 392.798 585.482C393.436 585.682 394.088 585.834 394.749 585.939C395.852 586.141 396.606 586.114 396.606 586.181Z" fill="#263238"/>
<path d="M396.121 586.289C395.868 585.889 395.776 585.408 395.865 584.943C395.922 584.464 396.088 584.004 396.35 583.598C396.501 583.316 396.721 583.077 396.989 582.903C397.257 582.729 397.565 582.625 397.884 582.602C398.077 582.638 398.249 582.748 398.362 582.909C398.475 583.07 398.521 583.269 398.489 583.463C398.455 583.764 398.354 584.054 398.193 584.311C397.954 584.73 397.665 585.118 397.332 585.468C396.754 586.06 396.296 586.302 396.269 586.262C396.242 586.222 396.646 585.912 397.144 585.307C397.441 584.95 397.698 584.562 397.911 584.149C398.153 583.746 398.314 583.033 397.911 582.952C397.507 582.871 396.955 583.409 396.686 583.786C396.433 584.159 396.258 584.581 396.175 585.024C396.112 585.443 396.094 585.867 396.121 586.289Z" fill="#263238"/>
<path d="M427.796 583.504C427.796 583.504 426.948 583.504 425.629 583.638C423.909 583.876 422.29 584.594 420.96 585.711C419.629 586.827 418.641 588.296 418.107 589.949C417.904 590.644 417.738 591.349 417.61 592.062C417.573 591.866 417.573 591.665 417.61 591.47C417.655 590.933 417.75 590.401 417.892 589.882C418.382 588.144 419.38 586.593 420.758 585.428C422.139 584.273 423.838 583.565 425.629 583.396C426.166 583.334 426.708 583.334 427.244 583.396C427.432 583.407 427.617 583.443 427.796 583.504Z" fill="#263238"/>
<path d="M424.446 571.38C424.706 573.374 424.841 575.383 424.85 577.394C424.97 579.402 424.97 581.415 424.85 583.423C424.596 581.428 424.461 579.419 424.446 577.408C424.334 575.4 424.334 573.388 424.446 571.38Z" fill="#263238"/>
<path d="M413.802 589.465C412.41 589.831 410.976 590.012 409.536 590.003C408.097 590.108 406.649 590.026 405.23 589.761C405.23 589.653 407.155 589.761 409.523 589.64C411.891 589.519 413.788 589.357 413.802 589.465Z" fill="#263238"/>
<path d="M419.547 589.317C419.615 589.384 419.399 589.72 419.211 590.164C419.023 590.608 418.942 590.999 418.834 590.999C418.727 590.999 418.673 590.541 418.834 590.03C418.996 589.518 419.48 589.236 419.547 589.317Z" fill="#263238"/>
<path d="M421.647 586.558C421.714 586.625 421.539 586.935 421.243 587.258C420.947 587.581 420.651 587.769 420.571 587.702C420.49 587.634 420.692 587.325 420.988 587.016C421.284 586.706 421.58 586.491 421.647 586.558Z" fill="#263238"/>
<path d="M424.715 585.253C424.715 585.347 424.311 585.36 423.881 585.522C423.45 585.683 423.154 585.925 423.073 585.858C422.993 585.791 423.221 585.374 423.76 585.185C424.298 584.997 424.742 585.158 424.715 585.253Z" fill="#263238"/>
<path d="M426.908 584.621C426.908 584.701 426.774 584.863 426.531 584.957C426.289 585.051 426.074 585.065 426.034 584.957C425.993 584.849 426.155 584.701 426.397 584.607C426.639 584.513 426.868 584.54 426.908 584.621Z" fill="#263238"/>
<path d="M467.936 584.688L465.635 569.2L494.619 564.706L498.225 587.325L496.449 587.715C488.523 589.397 456.081 595.789 450.43 594.941C444.186 594.053 467.936 584.688 467.936 584.688Z" fill="#BF87F8"/>
<g opacity="0.4">
<path d="M487.688 588.724C487.729 586.227 488.687 583.833 490.38 581.996C492.059 580.176 494.358 579.049 496.825 578.834L498.09 586.908L487.688 588.724Z" fill="black"/>
</g>
<path opacity="0.4" d="M456.404 589.693C456.404 589.693 448.155 593.528 449.447 594.78C450.739 596.031 483.84 590.877 498.225 587.325L498.077 586.679L459.539 593.03C459.539 593.03 458.099 589.505 456.404 589.693Z" fill="black"/>
<path d="M498.534 586.585C498.375 586.652 498.208 586.698 498.036 586.72L496.624 587.029L491.389 588.079C486.976 588.94 480.84 590.03 474.058 591.093C467.276 592.156 461.086 592.99 456.565 593.528L451.264 594.134L449.824 594.268H449.312L449.81 594.174L451.25 593.972L456.538 593.259C460.992 592.654 467.155 591.779 473.95 590.716C480.746 589.653 486.868 588.59 491.295 587.809L496.543 586.868L497.969 586.625L498.534 586.585Z" fill="#263238"/>
<path d="M459.62 593.474C459.264 592.64 458.813 591.85 458.275 591.12C457.642 590.459 456.933 589.876 456.162 589.384C457.081 589.629 457.905 590.145 458.527 590.865C459.148 591.585 459.539 592.476 459.647 593.421L459.62 593.474Z" fill="#263238"/>
<path d="M467.491 587.81C467.424 587.877 466.926 587.433 466.401 586.841C465.876 586.249 465.513 585.697 465.58 585.63C465.648 585.563 466.145 586.007 466.67 586.599C467.195 587.191 467.572 587.742 467.491 587.81Z" fill="#263238"/>
<path d="M469.645 586.195C469.645 586.275 469.093 586.047 468.514 585.683C467.936 585.32 467.532 584.943 467.586 584.862C467.64 584.782 468.138 585.01 468.716 585.374C469.295 585.737 469.698 586.114 469.645 586.195Z" fill="#263238"/>
<path d="M470.708 583.194C469.752 583.595 468.716 583.77 467.681 583.705C467.681 583.598 468.327 583.409 469.161 583.275C469.664 583.13 470.193 583.102 470.708 583.194Z" fill="#263238"/>
<path d="M470.909 581.229C470.462 581.641 469.898 581.904 469.295 581.983C468.716 582.163 468.097 582.163 467.519 581.983C468.069 581.795 468.637 581.665 469.214 581.593C469.766 581.417 470.334 581.295 470.909 581.229Z" fill="#263238"/>
<path d="M466.119 585.428C465.517 585.632 464.884 585.727 464.248 585.71C463.564 585.734 462.879 585.688 462.203 585.576C461.79 585.529 461.383 585.434 460.992 585.293C460.752 585.196 460.556 585.014 460.44 584.782C460.39 584.65 460.378 584.506 460.407 584.368C460.436 584.23 460.503 584.103 460.602 584.002C461.025 583.706 461.508 583.508 462.017 583.423C462.526 583.338 463.048 583.367 463.544 583.509C464.04 583.651 464.499 583.901 464.886 584.243C465.273 584.584 465.579 585.007 465.782 585.482C465.866 585.635 465.912 585.805 465.917 585.98C465.632 585.438 465.259 584.946 464.813 584.526C464.317 584.102 463.711 583.827 463.064 583.732C462.296 583.611 461.511 583.789 460.871 584.23C460.615 584.499 460.777 584.836 461.14 584.97C461.499 585.112 461.874 585.207 462.257 585.253C462.914 585.372 463.58 585.439 464.248 585.455C465.392 585.482 466.105 585.374 466.119 585.428Z" fill="#263238"/>
<path d="M465.648 585.603C465.356 585.248 465.207 584.797 465.231 584.338C465.214 583.841 465.316 583.348 465.527 582.898C465.636 582.605 465.816 582.344 466.051 582.137C466.286 581.93 466.568 581.785 466.873 581.714C467.068 581.724 467.251 581.81 467.384 581.953C467.517 582.096 467.589 582.286 467.586 582.481C467.585 582.782 467.521 583.08 467.397 583.355C467.221 583.806 466.985 584.231 466.698 584.62C466.456 585 466.129 585.318 465.742 585.549C465.742 585.549 466.065 585.159 466.482 584.486C466.761 584.084 466.991 583.65 467.169 583.194C467.37 582.75 467.424 582.023 466.953 582.01C466.482 581.996 466.079 582.575 465.85 582.992C465.637 583.409 465.522 583.87 465.513 584.338C465.516 584.763 465.561 585.187 465.648 585.603Z" fill="#263238"/>
<path d="M496.771 578.754C496.771 578.821 495.923 578.754 494.645 579.157C492.967 579.614 491.452 580.536 490.276 581.817C489.1 583.098 488.31 584.686 487.998 586.397C487.755 587.742 487.836 588.55 487.769 588.55C487.699 588.365 487.667 588.168 487.675 587.971C487.64 587.431 487.667 586.89 487.755 586.356C488.012 584.573 488.799 582.908 490.016 581.579C491.235 580.248 492.823 579.311 494.577 578.888C495.103 578.765 495.639 578.698 496.179 578.686C496.379 578.675 496.579 578.697 496.771 578.754Z" fill="#263238"/>
<path d="M491.82 567.168C492.327 569.113 492.722 571.085 493.004 573.075C493.394 575.049 493.668 577.044 493.825 579.05C493.323 577.1 492.932 575.123 492.655 573.129C492.257 571.161 491.978 569.17 491.82 567.168Z" fill="#263238"/>
<path d="M483.598 586.464C480.887 587.426 478.023 587.882 475.147 587.809C475.147 587.715 477.045 587.527 479.373 587.137C481.701 586.746 483.571 586.37 483.598 586.464Z" fill="#263238"/>
<path d="M489.277 585.576C489.357 585.576 489.182 585.993 489.061 586.464C488.94 586.935 488.886 587.325 488.792 587.338C488.698 587.352 488.563 586.908 488.711 586.37C488.859 585.831 489.196 585.508 489.277 585.576Z" fill="#263238"/>
<path d="M490.999 582.575C491.079 582.575 490.999 582.965 490.689 583.315C490.38 583.665 490.164 583.907 490.084 583.84C490.003 583.773 490.151 583.463 490.393 583.113C490.635 582.763 490.918 582.521 490.999 582.575Z" fill="#263238"/>
<path d="M493.879 580.88C493.879 580.987 493.489 581.041 493.085 581.257C492.682 581.472 492.413 581.741 492.318 581.687C492.224 581.633 492.413 581.203 492.91 580.947C493.408 580.691 493.893 580.786 493.879 580.88Z" fill="#263238"/>
<path d="M495.964 579.965C495.964 580.045 495.87 580.22 495.641 580.355C495.412 580.489 495.197 580.53 495.143 580.436C495.089 580.341 495.237 580.18 495.466 580.045C495.695 579.911 495.91 579.884 495.964 579.965Z" fill="#263238"/>
<path d="M478.471 293.541C477.193 294.995 474.529 294.725 472.537 292.963C470.546 291.2 469.94 288.589 471.192 287.136C472.443 285.683 475.134 285.939 477.139 287.715C479.144 289.491 479.763 292.088 478.471 293.541Z" fill="#FAFAFA"/>
<path d="M438.118 289.397C438.118 289.397 453.43 313.618 455.61 322.862C457.79 332.106 498.669 576.87 498.669 576.87L461.168 579.157L410.223 339.722L430.717 577.408L393.821 580.503C393.821 580.503 364.487 328.877 367.097 322.243C369.708 315.609 376.597 292.29 376.597 292.29L438.118 289.397Z" fill="#455A64"/>
<path d="M409.913 338.188C409.913 338.188 409.913 338.39 409.617 338.592C409.389 338.709 409.133 338.758 408.878 338.735C408.623 338.711 408.38 338.615 408.177 338.457C407.638 337.882 407.323 337.133 407.289 336.345L406.805 333.425C406.092 329.092 405.163 323.118 404.114 316.497C403.064 309.877 402.27 303.889 401.678 299.543C401.423 297.471 401.194 295.748 401.032 294.403C400.914 293.773 400.864 293.132 400.884 292.492C401.074 293.103 401.213 293.729 401.301 294.362C401.53 295.708 401.826 297.417 402.176 299.476C402.889 303.795 403.818 309.783 404.867 316.403C405.917 323.023 406.711 329.011 407.289 333.344C407.437 334.421 407.559 335.403 407.68 336.278C407.677 336.993 407.914 337.69 408.352 338.256C408.512 338.399 408.709 338.495 408.921 338.533C409.132 338.571 409.35 338.55 409.55 338.471C409.819 338.296 409.886 338.161 409.913 338.188Z" fill="#263238"/>
<path d="M406.079 297.296C406.079 297.296 406.079 297.08 406.443 296.878C406.891 296.622 407.42 296.546 407.923 296.663C408.318 296.742 408.679 296.938 408.96 297.226C409.241 297.514 409.429 297.881 409.497 298.278C409.58 298.767 409.507 299.27 409.29 299.717C409.073 300.163 408.722 300.53 408.286 300.767C407.842 300.965 407.35 301.027 406.871 300.946C406.392 300.864 405.948 300.643 405.595 300.31C405.312 300.036 405.105 299.694 404.995 299.317C404.884 298.939 404.873 298.54 404.962 298.157C405.285 296.811 406.2 296.556 406.2 296.636C405.823 297.101 405.565 297.651 405.447 298.238C405.404 298.533 405.436 298.834 405.54 299.113C405.643 299.393 405.815 299.642 406.039 299.839C406.305 300.073 406.633 300.226 406.983 300.28C407.333 300.335 407.692 300.289 408.017 300.148C408.321 299.974 408.568 299.714 408.726 299.4C408.884 299.087 408.946 298.734 408.905 298.386C408.864 298.096 408.74 297.824 408.549 297.603C408.359 297.381 408.109 297.218 407.828 297.134C407.244 296.984 406.626 297.041 406.079 297.296Z" fill="#263238"/>
<path d="M438.548 137.412C438.895 134.631 438.679 131.808 437.913 129.112C437.147 126.416 435.847 123.902 434.089 121.719C432.332 119.535 430.153 117.728 427.683 116.404C425.212 115.08 422.501 114.267 419.71 114.012C408.568 112.949 398.664 121.238 396.996 132.312C395.529 142.014 394.305 151.81 394.305 155.362C394.439 166.127 400.71 170.258 403.253 171.51C404.168 171.839 405.115 172.073 406.079 172.209V172.29L403.697 184.602C402.62 192.676 407.128 199.861 415.175 201.045C423.221 202.229 429.573 196.026 430.811 187.953L438.548 137.412Z" fill="#936754"/>
<path d="M399.526 137.627C399.457 138.063 399.559 138.508 399.809 138.871C400.06 139.234 400.44 139.487 400.871 139.579C401.083 139.624 401.302 139.627 401.515 139.587C401.729 139.547 401.932 139.465 402.113 139.346C402.295 139.227 402.451 139.074 402.572 138.894C402.694 138.715 402.779 138.513 402.822 138.3C402.89 137.866 402.788 137.423 402.537 137.062C402.287 136.701 401.907 136.451 401.477 136.363C401.265 136.315 401.047 136.311 400.834 136.349C400.62 136.387 400.417 136.467 400.235 136.585C400.054 136.703 399.897 136.856 399.776 137.035C399.654 137.214 399.569 137.415 399.526 137.627Z" fill="#263238"/>
<path d="M399.525 135.219C399.699 135.474 401.112 134.707 402.929 134.977C404.745 135.246 405.943 136.322 406.172 136.161C406.401 135.999 406.172 135.649 405.607 135.138C404.904 134.474 404.009 134.05 403.05 133.927C402.105 133.782 401.139 133.943 400.292 134.385C399.673 134.734 399.43 135.111 399.525 135.219Z" fill="#263238"/>
<path d="M416.709 140.494C416.641 140.928 416.743 141.371 416.994 141.732C417.244 142.093 417.624 142.343 418.055 142.431C418.266 142.48 418.485 142.487 418.699 142.449C418.913 142.412 419.117 142.332 419.299 142.213C419.481 142.095 419.637 141.942 419.759 141.762C419.88 141.582 419.964 141.379 420.006 141.166C420.077 140.73 419.977 140.283 419.726 139.92C419.475 139.556 419.093 139.303 418.66 139.215C418.232 139.128 417.787 139.213 417.421 139.452C417.055 139.692 416.8 140.066 416.709 140.494Z" fill="#263238"/>
<path d="M417.382 138.152C417.557 138.408 418.983 137.654 420.799 137.924C422.616 138.193 423.8 139.269 424.042 139.094C424.285 138.919 424.042 138.583 423.477 138.072C422.768 137.417 421.876 136.994 420.921 136.861C419.974 136.718 419.007 136.883 418.162 137.332C417.476 137.681 417.234 138.045 417.382 138.152Z" fill="#263238"/>
<path d="M408.77 150.666C407.856 150.22 406.888 149.894 405.89 149.697C405.432 149.59 405.015 149.428 404.975 149.105C405.011 148.617 405.189 148.149 405.486 147.76L407.37 144.423C410.061 139.686 411.999 135.744 411.797 135.649C409.875 138.31 408.165 141.117 406.684 144.046C406.038 145.23 405.432 146.347 404.84 147.41C404.475 147.932 404.299 148.564 404.342 149.2C404.384 149.372 404.466 149.532 404.58 149.667C404.695 149.803 404.839 149.91 405.002 149.98C405.25 150.092 405.513 150.169 405.782 150.209C406.756 150.479 407.759 150.633 408.77 150.666Z" fill="#263238"/>
<path d="M406.227 172.236C406.227 172.236 413.143 173.824 422.684 169.841C422.684 169.841 418.566 178.695 405.581 175.546L406.227 172.236Z" fill="#7C5142"/>
<path d="M408.89 155.147C409.299 154.762 409.799 154.488 410.343 154.352C410.887 154.215 411.457 154.22 411.999 154.367C412.39 154.453 412.761 154.617 413.089 154.848C413.417 155.079 413.696 155.372 413.909 155.712C414.106 156.052 414.195 156.444 414.163 156.836C414.132 157.228 413.983 157.601 413.734 157.905C413.396 158.188 412.981 158.363 412.542 158.408C412.104 158.454 411.661 158.368 411.272 158.161C410.458 157.731 409.735 157.146 409.146 156.439C408.963 156.26 408.812 156.051 408.702 155.82C408.654 155.709 408.638 155.587 408.657 155.468C408.676 155.348 408.729 155.237 408.81 155.147" fill="#7C5142"/>
<path d="M413.924 152.698C413.627 152.698 413.345 154.609 411.448 155.766C409.55 156.923 407.492 156.385 407.411 156.668C407.33 156.95 407.828 157.112 408.756 157.273C409.91 157.45 411.089 157.222 412.094 156.627C413.052 156.05 413.751 155.124 414.045 154.044C414.206 153.223 414.058 152.712 413.924 152.698Z" fill="#263238"/>
<path d="M416.964 134.856C417.072 135.38 418.915 135.407 421.001 135.972C423.087 136.538 424.728 137.318 425.038 136.982C425.186 136.78 424.957 136.268 424.338 135.636C423.498 134.913 422.503 134.393 421.43 134.115C420.357 133.837 419.234 133.81 418.149 134.035C417.382 134.29 416.924 134.613 416.964 134.856Z" fill="#263238"/>
<path d="M400.723 131.599C400.992 132.07 402.297 131.815 403.805 132.016C405.312 132.218 406.496 132.703 406.899 132.312C407.303 131.922 406.899 131.68 406.415 131.209C405.748 130.616 404.908 130.253 404.02 130.173C403.135 130.054 402.235 130.219 401.45 130.644C400.858 130.98 400.615 131.384 400.723 131.599Z" fill="#263238"/>
<path d="M456.646 192.487C454.964 189.487 451.882 187.347 450.618 184.158C448.438 178.681 452.286 172.599 453.309 166.827C453.981 165.293 454.56 163.866 454.87 162.951C456.067 159.318 456.067 153.532 454.345 150.141C452.744 146.966 448.693 143.817 447.523 140.722C445.706 135.986 447.052 134.761 445.666 124.885C444.872 119.273 437.404 111.509 429.519 112.774C427.042 110.085 423.717 108.327 420.099 107.796C415.795 106.967 411.343 107.417 407.291 109.091C403.24 110.765 399.769 113.589 397.305 117.215C394.964 120.754 393.564 125.517 394.95 129.756C397.17 133.133 404.221 131.101 408.473 128.72C410.694 130.135 413.38 130.628 415.959 130.092C418.538 129.557 420.805 128.036 422.279 125.853C422.688 126.376 423.2 126.808 423.783 127.123C424.367 127.438 425.009 127.629 425.67 127.683C425.818 128.935 425.966 129.984 426.06 130.657C426.491 133.752 431.133 138.219 431.187 141.341C431.281 147.208 426.774 147.504 425.522 153.25C424.58 157.569 427.863 160.099 428.482 164.472C428.448 165.446 428.214 166.403 427.796 167.284C425.98 170.837 424.459 174.591 424.822 178.507C425.159 182.207 427.164 185.611 427.352 189.271C427.675 195.77 422.562 201.059 419.575 206.764C416.835 212.11 415.842 218.182 416.735 224.122C428.702 226.266 440.808 227.548 452.959 227.957C453.391 228.065 453.843 228.065 454.275 227.955C454.707 227.845 455.105 227.63 455.433 227.328C455.761 227.027 456.009 226.649 456.155 226.228C456.301 225.807 456.34 225.356 456.269 224.916C456.861 218.269 457.449 211.631 458.032 205.001C458.408 200.776 458.731 196.215 456.646 192.487Z" fill="#263238"/>
<path d="M364.903 312.609C357.57 315.623 353.116 322.956 349.16 329.832L334.694 354.981C332.784 358.318 330.806 361.925 331.115 365.746C331.359 367.551 331.987 369.283 332.957 370.824C333.928 372.366 335.218 373.681 336.74 374.681C339.79 376.662 343.145 378.131 346.67 379.027C350.99 380.373 355.457 381.53 359.951 381.113C364.446 380.696 369.021 378.422 371.012 374.385C372.681 370.994 372.358 367.011 371.941 363.243C370.541 349.949 369.146 336.645 367.756 323.333C367.392 319.888 367.043 316.444 366.679 312.999" fill="#263238"/>
<path d="M338.88 348.173C339.253 348.617 339.711 348.982 340.225 349.249C340.954 349.535 341.744 349.626 342.518 349.513C343.292 349.399 344.023 349.086 344.639 348.603C346.267 347.419 347.33 345.172 348.676 342.79C350.021 340.409 351.475 337.798 352.995 335.053C356.077 329.563 358.902 324.625 360.975 321.059L363.464 316.861C363.742 316.329 364.076 315.828 364.46 315.367C364.259 315.932 364.006 316.477 363.706 316.995L361.419 321.301C359.454 324.921 356.696 329.913 353.614 335.39C352.067 338.081 350.6 340.772 349.241 343.113C347.882 345.455 346.738 347.756 344.935 348.994C344.25 349.506 343.439 349.823 342.589 349.911C341.738 349.999 340.879 349.854 340.104 349.491C339.697 349.276 339.346 348.967 339.082 348.59C338.988 348.466 338.919 348.324 338.88 348.173Z" fill="#455A64"/>
<path d="M347.693 380.83C347.505 380.83 351.34 365.531 356.265 346.787C361.189 328.043 365.32 312.851 365.509 312.905C365.697 312.959 361.862 328.204 356.937 346.962C352.013 365.719 347.882 380.884 347.693 380.83Z" fill="#455A64"/>
<path d="M338.637 348.617C338.078 349.264 337.299 349.682 336.45 349.788C335.601 349.894 334.742 349.682 334.041 349.193C333.339 348.703 332.844 347.971 332.651 347.137C332.458 346.304 332.58 345.428 332.995 344.68C333.41 343.932 334.087 343.364 334.897 343.086C335.706 342.808 336.589 342.84 337.376 343.176C338.163 343.511 338.798 344.127 339.158 344.903C339.517 345.679 339.576 346.561 339.323 347.379" fill="#BF87F8"/>
<path d="M444.818 196.699C444.591 197.152 444.306 197.572 443.97 197.951L441.279 201.328C438.924 204.235 435.574 208.46 431.47 213.734C427.366 219.009 422.575 225.333 417.368 232.452C412.16 239.57 406.603 247.536 400.979 256.013C395.354 264.49 390.214 272.712 385.598 280.234C380.983 287.756 377.04 294.658 373.784 300.418C370.528 306.177 367.917 310.967 366.141 314.264C365.253 315.852 364.567 317.116 364.055 318.018C363.838 318.475 363.567 318.904 363.248 319.296C363.379 318.826 363.569 318.373 363.813 317.951L365.657 314.062C367.285 310.698 369.761 305.881 372.923 300C376.085 294.12 379.987 287.164 384.495 279.561C389.003 271.958 394.17 263.71 399.808 255.206C405.446 246.701 411.084 238.789 416.332 231.671C421.58 224.553 426.478 218.215 430.689 213.089C434.901 207.962 438.386 203.75 440.862 200.978C442.073 199.633 443.028 198.529 443.728 197.762C444.045 197.364 444.412 197.007 444.818 196.699Z" fill="#263238"/>
<path d="M128.698 133.981C127.701 132.471 126.253 131.313 124.561 130.673C122.869 130.032 121.019 129.94 119.271 130.411C117.524 130.882 115.97 131.891 114.829 133.295C113.688 134.699 113.018 136.426 112.914 138.233C113.05 139.938 112.995 141.653 112.752 143.346C112.403 144.472 111.678 145.444 110.699 146.101C109.719 146.757 108.544 147.057 107.37 146.952C108.221 148.122 109.409 149.005 110.774 149.482C110.598 149.399 110.404 149.36 110.209 149.368C110.014 149.375 109.823 149.43 109.653 149.526C109.484 149.622 109.339 149.757 109.232 149.92C109.125 150.084 109.059 150.27 109.039 150.464C109.031 150.864 109.144 151.258 109.362 151.594C109.58 151.929 109.894 152.192 110.263 152.348C111.013 152.634 111.817 152.753 112.618 152.698C116.493 152.698 120.691 152.267 123.611 149.711C126.774 147.019 127.648 142.512 128.429 138.381" fill="#263238"/>
<path d="M163.441 117.618C167.478 117.389 171.245 119.838 174.031 122.785C176.816 125.732 178.982 129.244 181.889 132.083C184.042 134.196 186.666 136.012 187.971 138.811C190.057 143.157 188.307 148.769 190.931 152.805C192.411 155.079 194.968 156.412 196.556 158.659C198.467 161.471 198.319 165.158 197.901 168.522C198.016 170.659 197.355 172.766 196.04 174.455C194.724 176.144 192.843 177.3 190.743 177.712C177.458 182.209 163.112 182.514 149.648 178.587" fill="#263238"/>
<path d="M135.56 144.786C135.213 142.005 135.429 139.182 136.195 136.486C136.961 133.79 138.261 131.275 140.019 129.092C141.776 126.909 143.955 125.102 146.426 123.778C148.896 122.454 151.608 121.64 154.399 121.386C165.54 120.323 175.444 128.612 177.126 139.686C178.579 149.388 179.817 159.184 179.817 162.736C179.682 173.501 173.412 177.632 170.869 178.883C169.953 179.212 169.006 179.447 168.043 179.583V179.664L170.425 191.976C171.501 200.049 166.994 207.235 158.947 208.419C150.9 209.603 144.549 203.4 143.311 195.326L135.56 144.786Z" fill="#FFBE9D"/>
<path d="M175.174 145.956C175 146.212 173.587 145.445 171.77 145.714C169.954 145.983 168.756 147.06 168.527 146.898C168.298 146.737 168.527 146.387 169.092 145.875C169.795 145.211 170.69 144.787 171.649 144.664C172.572 144.53 173.514 144.69 174.34 145.122C175.053 145.472 175.309 145.875 175.174 145.956Z" fill="#263238"/>
<path d="M159.028 149.455C158.839 149.711 157.427 148.944 155.61 149.213C153.793 149.482 152.596 150.558 152.367 150.397C152.138 150.235 152.367 149.886 152.932 149.374C153.641 148.72 154.533 148.297 155.489 148.163C156.412 148.039 157.35 148.199 158.18 148.621C158.907 148.971 159.149 149.347 159.028 149.455Z" fill="#263238"/>
<path d="M165.337 157.986C166.255 157.55 167.222 157.224 168.217 157.017C168.674 156.91 169.091 156.748 169.132 156.425C169.095 155.937 168.918 155.469 168.62 155.08L166.737 151.743C165.031 148.94 163.551 146.006 162.31 142.969C164.241 145.631 165.955 148.443 167.436 151.379C168.069 152.55 168.674 153.667 169.266 154.73C169.67 155.281 169.856 155.961 169.791 156.64C169.749 156.813 169.668 156.973 169.553 157.108C169.439 157.244 169.295 157.351 169.132 157.421C168.888 157.533 168.63 157.61 168.365 157.65C167.372 157.881 166.356 157.994 165.337 157.986Z" fill="#263238"/>
<path d="M167.895 179.61C167.895 179.61 160.965 181.198 151.425 177.215C151.425 177.215 155.542 186.069 168.527 182.92L167.895 179.61Z" fill="#EB996E"/>
<path d="M165.218 162.521C164.809 162.136 164.309 161.862 163.765 161.725C163.221 161.589 162.651 161.594 162.109 161.74C161.321 161.92 160.634 162.404 160.199 163.086C160.002 163.426 159.913 163.818 159.945 164.21C159.976 164.601 160.125 164.974 160.374 165.279C160.715 165.561 161.132 165.735 161.573 165.781C162.013 165.826 162.458 165.741 162.849 165.535C163.66 165.104 164.377 164.519 164.962 163.812C165.145 163.634 165.296 163.424 165.406 163.193C165.458 163.083 165.475 162.96 165.456 162.84C165.437 162.72 165.382 162.609 165.298 162.521" fill="#EB996E"/>
<path d="M160.185 160.072C160.481 160.072 160.763 161.983 162.661 163.14C164.558 164.297 166.617 163.772 166.698 164.041C166.778 164.31 166.28 164.485 165.352 164.647C164.198 164.823 163.019 164.595 162.015 164.001C161.056 163.423 160.357 162.498 160.064 161.417C159.902 160.597 160.05 160.085 160.185 160.072Z" fill="#263238"/>
<path d="M157.816 143.548C157.708 144.072 155.851 144.099 153.779 144.665C151.707 145.23 150.052 146.01 149.742 145.66C149.581 145.472 149.81 144.961 150.442 144.315C151.275 143.583 152.272 143.061 153.349 142.794C154.42 142.505 155.545 142.472 156.632 142.7C157.399 142.969 157.856 143.305 157.816 143.548Z" fill="#263238"/>
<path d="M173.385 140.359C173.13 140.816 171.811 140.574 170.304 140.776C168.797 140.978 167.613 141.449 167.209 141.058C167.048 140.87 167.209 140.426 167.693 139.955C168.372 139.38 169.206 139.019 170.09 138.919C170.974 138.818 171.868 138.982 172.659 139.39C173.264 139.74 173.493 140.13 173.385 140.359Z" fill="#263238"/>
<path d="M179.211 137.277C176.991 140.668 169.954 138.623 165.688 136.241C163.469 137.658 160.784 138.152 158.206 137.62C155.627 137.087 153.358 135.569 151.882 133.388C149.447 136.483 144.495 135.461 142.692 131.962C140.889 128.463 141.912 123.66 144.387 120.605C146.88 117.751 150.312 115.885 154.062 115.344C158.366 114.517 162.818 114.968 166.869 116.642C170.92 118.316 174.392 121.139 176.857 124.763C179.198 128.302 180.597 133.065 179.211 137.304" fill="#263238"/>
<path d="M144.98 120.309C137.001 118.789 129.304 126.741 128.51 132.42C127.164 142.297 128.51 143.534 126.653 148.271C125.469 151.352 121.419 154.501 119.817 157.69C118.095 161.094 118.095 166.867 119.293 170.487C120.302 173.555 124.419 182.099 124.419 182.099C124.419 182.099 136.288 181.709 142.356 180.162C143.924 179.847 145.396 179.164 146.649 178.17C147.792 177.12 145.424 173.501 145.639 171.967C146.258 167.58 149.542 165.05 148.6 160.731C147.348 154.985 142.841 154.703 142.935 148.823C142.935 145.714 147.631 141.233 148.061 138.152C148.492 135.071 150.282 124.346 144.98 120.309Z" fill="#263238"/>
<path d="M128.186 141.26C128.388 141.26 127.971 139.269 128.011 136.887C128.051 134.505 128.509 132.581 128.307 132.514C127.672 133.881 127.332 135.367 127.312 136.874C127.291 138.381 127.589 139.876 128.186 141.26Z" fill="#BF87F8"/>
<path d="M128.429 137.91C128.697 138.04 128.991 138.109 129.29 138.112C130.091 138.184 130.898 138.139 131.685 137.977C132.871 137.751 134 137.294 135.009 136.632C136.241 135.817 137.276 134.736 138.036 133.469C138.741 132.256 139.571 131.119 140.512 130.079C141.32 129.28 142.257 128.625 143.284 128.141C144.265 127.745 145.272 127.417 146.298 127.159C146.006 127.09 145.702 127.09 145.41 127.159C144.611 127.243 143.828 127.438 143.082 127.737C141.961 128.177 140.934 128.826 140.055 129.648C139.067 130.689 138.208 131.846 137.498 133.093C136.189 135.272 134.078 136.852 131.618 137.493C130.564 137.695 129.499 137.835 128.429 137.91Z" fill="#455A64"/>
<path d="M108.957 150.101C109.253 150.319 109.612 150.437 109.98 150.437C110.991 150.502 111.993 150.217 112.819 149.63C114.036 148.762 114.941 147.526 115.402 146.104C115.981 144.557 116.25 142.781 116.748 141.032C117.125 139.395 118.045 137.934 119.358 136.887C120.502 136.136 121.877 135.821 123.234 135.999C124.499 136.196 125.685 136.736 126.665 137.56C126.665 137.56 126.517 137.183 125.979 136.726C125.208 136.083 124.278 135.66 123.288 135.501C121.797 135.241 120.262 135.543 118.982 136.349C117.514 137.454 116.48 139.04 116.062 140.83C115.524 142.646 115.281 144.396 114.716 145.876C114.327 147.196 113.543 148.366 112.469 149.226C111.737 149.791 110.85 150.12 109.926 150.168C109.334 150.168 108.97 150.047 108.957 150.101Z" fill="#455A64"/>
<path d="M128.227 136.712C128.227 136.712 128.576 136.82 129.209 136.712C130.08 136.481 130.871 136.015 131.496 135.367C132.402 134.393 133.106 133.25 133.569 132.003C134.07 130.532 134.728 129.12 135.533 127.791C136.337 126.654 137.377 125.704 138.583 125.008C139.788 124.311 141.13 123.883 142.517 123.754C143.682 123.694 144.85 123.757 146.002 123.942C146.002 123.942 145.719 123.741 145.114 123.552C144.238 123.31 143.33 123.21 142.423 123.256C140.944 123.311 139.498 123.703 138.194 124.403C136.89 125.103 135.764 126.091 134.901 127.293C134.072 128.665 133.404 130.128 132.909 131.653C132.503 132.841 131.883 133.944 131.079 134.909C130.336 135.789 129.34 136.419 128.227 136.712Z" fill="#455A64"/>
<path d="M131.483 182.503C131.483 182.503 130.905 181.844 129.896 180.633C128.491 178.916 127.307 177.031 126.37 175.021C124.972 172.051 124.378 168.766 124.648 165.495C124.796 163.511 125.337 161.576 126.237 159.802C127.138 158.029 128.382 156.451 129.896 155.16C131.537 153.815 133.421 152.833 135.009 151.487C136.604 150.222 137.766 148.491 138.332 146.535C138.818 144.81 139.147 143.045 139.315 141.26C139.478 139.741 139.784 138.241 140.23 136.78C140.523 135.728 141.034 134.75 141.729 133.908C142.424 133.067 143.289 132.381 144.266 131.895C145.012 131.595 145.805 131.431 146.608 131.411C146.405 131.34 146.19 131.308 145.975 131.316C145.353 131.305 144.735 131.419 144.159 131.653C143.104 132.109 142.162 132.789 141.397 133.647C140.633 134.504 140.064 135.518 139.732 136.618C139.251 138.103 138.913 139.63 138.723 141.18C138.522 142.922 138.18 144.646 137.7 146.333C137.148 148.162 136.05 149.778 134.551 150.962C133.017 152.24 131.147 153.236 129.425 154.622C127.857 155.969 126.573 157.614 125.649 159.462C124.725 161.311 124.179 163.325 124.042 165.387C123.793 168.761 124.458 172.141 125.966 175.169C126.948 177.202 128.216 179.083 129.734 180.754C130.272 181.346 130.716 181.776 131.08 182.099C131.443 182.422 131.456 182.53 131.483 182.503Z" fill="#455A64"/>
<path d="M189.505 177.336C189.505 177.336 189.626 177.201 189.801 176.918C190.056 176.486 190.28 176.036 190.474 175.573C191.17 173.864 191.523 172.035 191.51 170.19C191.526 167.429 190.751 164.721 189.276 162.386C188.367 161.065 187.364 159.81 186.276 158.632C185.15 157.414 184.337 155.941 183.908 154.339C183.194 151.002 184.284 147.611 184.056 144.557C184.006 141.807 183.266 139.114 181.903 136.726C180.958 135.137 179.694 133.762 178.189 132.689C177.784 132.396 177.356 132.135 176.91 131.908C176.614 131.747 176.439 131.68 176.439 131.706C176.439 131.733 177.032 132.11 178.014 132.904C179.415 134.015 180.589 135.386 181.472 136.941C182.736 139.277 183.41 141.887 183.437 144.543C183.459 146.123 183.364 147.701 183.154 149.266C182.903 150.996 182.935 152.755 183.248 154.474C183.705 156.179 184.573 157.745 185.778 159.035C186.851 160.195 187.849 161.422 188.765 162.709C190.198 164.94 190.985 167.525 191.039 170.177C191.098 171.969 190.829 173.756 190.245 175.452C189.801 176.69 189.451 177.309 189.505 177.336Z" fill="#455A64"/>
<path d="M155.73 116.555C157.449 116.53 159.167 116.629 160.871 116.851C164.96 117.528 168.709 119.544 171.528 122.583C174.198 125.759 175.968 129.593 176.654 133.684C176.888 135.387 176.973 137.107 176.91 138.825C177.073 138.393 177.173 137.939 177.206 137.479C177.358 136.205 177.358 134.918 177.206 133.644C176.644 129.406 174.879 125.418 172.12 122.153C169.206 118.994 165.278 116.957 161.019 116.394C159.74 116.241 158.449 116.241 157.17 116.394C156.685 116.366 156.198 116.421 155.73 116.555Z" fill="#455A64"/>
<path d="M167.195 132.326C167.325 131.936 167.385 131.525 167.37 131.114C167.405 130 167.287 128.887 167.02 127.804C166.609 125.991 165.832 124.28 164.736 122.778C163.64 121.276 162.248 120.015 160.646 119.071C159.044 118.126 157.265 117.52 155.42 117.289C153.575 117.058 151.703 117.206 149.917 117.726C148.839 118.034 147.806 118.487 146.849 119.071C146.19 119.489 145.853 119.771 145.88 119.811C147.216 119.167 148.608 118.644 150.038 118.251C153.515 117.366 157.201 117.893 160.292 119.715C163.382 121.538 165.626 124.508 166.535 127.979C166.881 129.406 167.102 130.86 167.195 132.326Z" fill="#455A64"/>
<path d="M96.551 348.482C96.255 349.518 95.9186 350.742 95.5957 352.209C95.3269 353.46 95.2723 354.748 95.4342 356.017C95.5736 357.606 95.9313 359.168 96.4972 360.659C97.1566 362.005 95.8782 363.351 94.6941 362.799C93.51 362.247 91.5992 358.628 91.4378 353.904C91.2763 349.181 86.7955 355.115 85.1135 357.242C83.4315 359.368 77.9549 365.719 76.8919 365.719C75.331 365.719 75.035 364.064 76.7573 361.978C78.4797 359.892 83.2027 353.259 82.0321 352.424C80.8614 351.59 72.5187 362.516 72.5187 362.516C72.5187 362.516 71.1731 365.207 69.7199 364.239C67.2305 362.584 76.9861 351.59 77.9415 350.567C78.6008 349.854 77.3629 348.912 76.7035 349.706C76.0442 350.5 68.63 360.834 66.0464 359.125C64.0953 357.861 73.9854 350.016 74.3353 347.015C74.6851 344.014 67.4324 353.743 65.6158 352.397C64.943 351.913 64.499 351.469 69.4642 346.49C71.8728 344.082 81.1574 336.762 81.1574 336.762L99.9958 271.029H124.714L96.551 348.482Z" fill="#FFBE9D"/>
<path d="M299.386 81.5428C297.502 80.3452 290.72 90.3833 290.922 87.3826C291.124 84.382 300.651 76.0662 298.632 74.8955C296.008 73.3616 289.092 83.9918 288.446 84.8529C287.8 85.7141 286.535 84.8529 287.101 84.059C288.002 82.996 297.233 71.545 294.663 70.0245C293.236 69.1768 291.972 71.8679 291.972 71.8679C291.972 71.8679 284.127 83.2113 282.929 82.4443C281.732 81.6773 286.118 74.8552 287.76 72.6618C289.401 70.4685 288.998 68.8404 287.45 68.9211C286.387 68.9211 281.207 75.6491 279.632 77.7751C278.058 79.9011 273.86 86.1178 273.47 81.4082C273.079 76.6986 271.007 73.227 269.796 72.6753C268.585 72.1236 267.374 73.6172 268.101 74.8955C268.763 76.3541 269.216 77.8988 269.446 79.484C269.662 80.7487 269.662 82.0408 269.446 83.3055C269.204 84.7722 268.922 85.9967 268.666 87.0597L265.49 92.2672C265.49 92.2672 242.279 133.389 238.417 139.255C234.555 145.122 205.611 169.625 205.611 169.625L207.899 201.92L254.995 160.206L283.885 99.3181L284.598 97.811C284.598 97.811 293.519 90.0738 295.807 87.5441C300.543 82.4309 300.086 82.0003 299.386 81.5428Z" fill="#FFBE9D"/>
<path d="M199.126 221.566L235.363 183.822L221.005 152.698L171.501 188.02L170.613 185.329L141.763 188.935V194.035L140.942 194.129C140.942 194.129 113.492 199.121 107.975 219.695C104.167 233.891 96.2686 260.332 91.8281 275.349L124.755 278.228L133.124 250.671C133.124 250.671 138.372 262.66 138.076 268.338C137.78 274.017 132.344 292.424 132.344 292.424L196.65 298.439L195.695 244.185L199.126 221.566Z" fill="#BF87F8"/>
<path d="M196.516 226.975C196.516 227.163 176.332 227.325 151.546 227.325C126.76 227.325 106.576 227.163 106.576 226.975C106.576 226.787 126.76 226.612 151.546 226.612C176.332 226.612 196.516 226.773 196.516 226.975Z" fill="#F5F5F5"/>
<path d="M198.372 221.498C198.372 221.7 178.188 221.848 153.416 221.848C128.644 221.848 108.446 221.7 108.446 221.498C108.446 221.296 128.63 221.148 153.416 221.148C178.202 221.148 198.372 221.31 198.372 221.498Z" fill="#F5F5F5"/>
<path d="M85.0195 545.638L78.1301 576.789L65.5757 599.852C65.3614 600.246 65.2304 600.679 65.1906 601.125C65.1509 601.572 65.2033 602.021 65.3446 602.447C65.4859 602.872 65.7131 603.264 66.0121 603.597C66.3111 603.931 66.6755 604.2 67.0827 604.387C67.5543 604.608 68.0726 604.711 68.5929 604.688C69.1133 604.664 69.6201 604.515 70.0699 604.252C75.9098 600.888 97.3451 588.361 97.7219 586.046C98.1525 583.355 107.141 553.671 107.141 553.671L85.0195 545.638Z" fill="#BF87F8"/>
<path opacity="0.6" d="M67.042 604.387L98.1925 583.961L97.8696 585.307C97.5953 586.445 96.9222 587.447 95.9723 588.132C93.4426 589.962 86.3378 594.86 70.1234 604.279C69.6587 604.551 69.134 604.702 68.5962 604.721C68.0585 604.74 67.5245 604.625 67.042 604.387Z" fill="white"/>
<g opacity="0.6">
<path d="M94.2911 572.429C93.8404 572.616 93.4744 572.962 93.2633 573.401C93.0522 573.841 93.0109 574.343 93.1474 574.811C93.3151 575.267 93.6522 575.64 94.0884 575.853C94.5246 576.066 95.0263 576.103 95.4887 575.955C95.9654 575.759 96.3522 575.393 96.5737 574.928C96.7951 574.463 96.8352 573.932 96.6863 573.439C96.4622 572.98 96.0687 572.628 95.5891 572.454C95.1095 572.281 94.5813 572.301 94.1162 572.51" fill="white"/>
</g>
<path d="M77.4447 592.613C76.9407 591.463 76.2187 590.421 75.3186 589.545C74.2952 588.819 73.1453 588.289 71.9277 587.984C71.9277 587.904 72.3718 587.756 73.1119 587.836C74.1062 587.947 75.044 588.355 75.8031 589.007C76.566 589.634 77.1275 590.472 77.4178 591.416C77.5927 592.115 77.5254 592.613 77.4447 592.613Z" fill="#263238"/>
<path d="M74.2549 596.192C74.0665 596.3 73.3264 595.048 71.8328 594.187C70.877 593.756 69.8976 593.378 68.8994 593.057C69.4491 592.878 70.0335 592.832 70.6043 592.923C71.1752 593.015 71.7162 593.24 72.1827 593.582C73.8512 594.564 74.4029 596.152 74.2549 596.192Z" fill="#263238"/>
<path d="M82.8671 588.28C81.7717 587.082 80.5936 585.963 79.3416 584.93C77.9543 584.091 76.5059 583.358 75.0088 582.736C76.7329 582.686 78.4164 583.265 79.7453 584.365C81.2154 585.26 82.3212 586.647 82.8671 588.28Z" fill="#263238"/>
<path d="M85.7467 578.982C85.6256 579.144 84.0782 578.013 81.8714 577.381C79.6647 576.748 77.8346 576.856 77.7539 576.654C79.172 576.28 80.6653 576.298 82.0735 576.709C83.4817 577.119 84.7516 577.905 85.7467 578.982Z" fill="#263238"/>
<path d="M88.0078 569.886C86.7459 569.123 85.3885 568.53 83.9711 568.123C82.5244 567.928 81.058 567.928 79.6113 568.123C79.6113 568.056 80.015 567.747 80.8224 567.504C81.8999 567.221 83.0289 567.193 84.1191 567.424C85.2038 567.627 86.2237 568.089 87.0928 568.769C87.7925 569.375 88.0617 569.832 88.0078 569.886Z" fill="#263238"/>
<path d="M84.4948 566.401C84.4847 565.993 84.5675 565.588 84.737 565.217C85.0892 564.173 85.6423 563.209 86.3652 562.378C86.8608 561.726 87.5552 561.254 88.3432 561.032C88.6048 560.993 88.8719 561.033 89.1113 561.145C89.3506 561.258 89.5514 561.438 89.6888 561.664C89.9164 562.138 89.9689 562.677 89.8368 563.185C89.5166 564.185 88.8647 565.047 87.9889 565.626C87.113 566.206 86.0656 566.47 85.0196 566.374C83.9685 566.225 82.9848 565.769 82.1923 565.063C81.3998 564.356 80.8338 563.432 80.5657 562.404C80.5031 562.143 80.4959 561.872 80.5445 561.608C80.5932 561.343 80.6967 561.092 80.8482 560.87C81.0324 560.672 81.2723 560.534 81.5363 560.474C81.8004 560.414 82.0765 560.435 82.3284 560.534C83.0477 560.889 83.6605 561.427 84.1046 562.095C84.7832 562.974 85.2982 563.967 85.6251 565.028C85.7815 565.403 85.8549 565.807 85.8404 566.212C85.3189 564.839 84.5881 563.555 83.674 562.404C83.2715 561.83 82.7298 561.367 82.0996 561.059C81.9639 560.999 81.8125 560.983 81.6674 561.014C81.5222 561.046 81.3909 561.123 81.2923 561.234C81.2037 561.387 81.1462 561.556 81.1231 561.732C81.1 561.907 81.1118 562.086 81.1577 562.256C81.4025 563.141 81.8969 563.936 82.5818 564.547C83.2666 565.158 84.113 565.559 85.0196 565.701C85.9262 565.797 86.8385 565.583 87.6082 565.095C88.3778 564.606 88.9594 563.871 89.2582 563.01C89.3826 562.667 89.3826 562.29 89.2582 561.947C89.1869 561.815 89.0756 561.708 88.9403 561.643C88.805 561.578 88.6525 561.557 88.5046 561.584C87.8415 561.773 87.2506 562.157 86.8092 562.687C85.8269 563.78 85.0436 565.037 84.4948 566.401Z" fill="#263238"/>
<path d="M184.889 555.448L183.019 580.341C183.019 580.341 207.697 590.595 207.805 595.223L159.363 593.353L160.709 554.438L184.889 555.448Z" fill="#BF87F8"/>
<g opacity="0.6">
<path d="M168.137 577.664C167.666 577.785 167.257 578.076 166.989 578.481C166.721 578.886 166.612 579.376 166.684 579.857C166.788 580.333 167.07 580.75 167.474 581.023C167.877 581.296 168.37 581.404 168.85 581.324C169.351 581.193 169.785 580.881 170.068 580.449C170.352 580.016 170.464 579.493 170.384 578.982C170.221 578.497 169.876 578.095 169.421 577.859C168.967 577.623 168.439 577.572 167.949 577.718" fill="white"/>
</g>
<path opacity="0.6" d="M159.404 593.353L159.687 589.438L205.989 592.694C205.989 592.694 208.115 593.716 207.805 595.224L159.404 593.353Z" fill="white"/>
<path d="M183.813 580.126C183.813 580.355 182.615 580.422 181.418 581.135C180.22 581.848 179.574 582.817 179.359 582.723C179.143 582.629 179.547 581.256 181 580.422C182.454 579.588 183.88 579.911 183.813 580.126Z" fill="#263238"/>
<path d="M188.805 582.413C188.805 582.656 187.823 583.005 186.975 583.974C186.127 584.943 185.858 585.993 185.63 585.979C185.401 585.966 185.293 584.634 186.356 583.436C187.419 582.238 188.819 582.198 188.805 582.413Z" fill="#263238"/>
<path d="M191.456 588.576C191.241 588.576 190.958 587.432 191.617 586.154C192.277 584.876 193.393 584.418 193.488 584.62C193.582 584.822 192.869 585.481 192.344 586.531C191.819 587.58 191.698 588.576 191.456 588.576Z" fill="#263238"/>
<path d="M183.611 574.407C183.504 574.609 182.427 574.245 181.095 574.286C179.763 574.326 178.7 574.703 178.579 574.501C178.458 574.299 179.494 573.478 181.082 573.465C182.67 573.452 183.733 574.219 183.611 574.407Z" fill="#263238"/>
<path opacity="0.3" d="M184.512 560.373L184.176 564.813L160.399 563.669L160.534 559.659L184.512 560.373Z" fill="black"/>
<path d="M183.894 569.375C183.091 569.553 182.256 569.516 181.472 569.267C180.605 569.078 179.765 568.784 178.969 568.392C178.504 568.157 178.054 567.892 177.623 567.598C177.361 567.433 177.125 567.229 176.924 566.993C176.774 566.819 176.686 566.601 176.674 566.372C176.662 566.143 176.726 565.917 176.856 565.728C176.985 565.57 177.147 565.443 177.331 565.357C177.515 565.271 177.716 565.227 177.919 565.23C178.226 565.244 178.529 565.298 178.821 565.392C179.331 565.539 179.826 565.733 180.301 565.97C181.106 566.371 181.842 566.898 182.481 567.531C183.571 568.608 183.921 569.509 183.827 569.549C183.732 569.59 183.194 568.863 182.077 567.962C181.438 567.419 180.727 566.966 179.965 566.616C179.529 566.422 179.079 566.26 178.619 566.132C178.108 565.984 177.677 565.957 177.543 566.132C177.408 566.307 177.543 566.253 177.543 566.401C177.693 566.567 177.865 566.712 178.054 566.831C178.462 567.117 178.884 567.382 179.319 567.625C180.053 568.025 180.824 568.354 181.62 568.608C182.396 568.804 183.157 569.061 183.894 569.375Z" fill="#263238"/>
<path d="M183.571 569.738C183.138 569.028 182.945 568.198 183.02 567.37C183.014 566.454 183.164 565.544 183.464 564.679C183.637 564.172 183.863 563.685 184.137 563.225C184.28 562.912 184.501 562.642 184.779 562.439C185.057 562.236 185.383 562.109 185.724 562.068C185.939 562.08 186.147 562.153 186.321 562.28C186.495 562.406 186.629 562.58 186.707 562.781C186.823 563.069 186.896 563.373 186.922 563.683C187.004 564.222 187.004 564.771 186.922 565.311C186.756 566.213 186.368 567.06 185.792 567.773C184.796 568.998 183.8 569.24 183.773 569.119C183.746 568.998 184.54 568.567 185.321 567.397C185.764 566.718 186.053 565.951 186.168 565.15C186.236 564.681 186.236 564.205 186.168 563.737C186.168 563.225 185.94 562.808 185.738 562.849C185.536 562.889 185.078 563.212 184.863 563.616C184.607 564.022 184.386 564.449 184.204 564.894C183.904 565.666 183.718 566.477 183.652 567.302C183.491 568.769 183.706 569.738 183.571 569.738Z" fill="#263238"/>
<path d="M134.806 283.207C134.806 283.207 119.48 307.428 117.314 316.659C115.336 324.961 81.8304 505.378 74.8871 542.718C74.5488 544.578 74.9117 546.497 75.9058 548.105C76.8998 549.713 78.4545 550.896 80.2695 551.424L110.586 560.534C111.597 560.84 112.661 560.933 113.71 560.807C114.759 560.68 115.77 560.338 116.679 559.8C117.589 559.262 118.377 558.542 118.993 557.684C119.61 556.826 120.041 555.849 120.261 554.815L157.574 380.009L146.621 553.174C146.545 554.405 146.728 555.639 147.155 556.796C147.583 557.953 148.248 559.008 149.106 559.894C149.964 560.78 150.998 561.478 152.141 561.943C153.284 562.407 154.511 562.629 155.744 562.593L185.428 561.678C187.636 561.605 189.738 560.714 191.325 559.177C192.912 557.64 193.87 555.567 194.013 553.362C196.583 511.649 208.195 321.92 205.854 315.999C203.243 309.271 196.367 286.046 196.367 286.046L134.806 283.207Z" fill="#263238"/>
<path d="M122.697 546.284C122.072 546.262 121.451 546.186 120.84 546.056C119.656 545.867 117.947 545.544 115.834 545.114C111.636 544.253 105.85 542.88 99.5526 541.077C93.2552 539.274 87.7113 537.269 83.6746 535.735C81.6696 534.968 80.0549 534.322 78.9515 533.838C78.3662 533.629 77.8028 533.363 77.2695 533.044C77.8832 533.16 78.483 533.341 79.0592 533.582L83.8495 535.264C87.8863 536.677 93.5243 538.547 99.7948 540.377C106.065 542.207 111.824 543.647 115.942 544.629L120.894 545.786C121.511 545.885 122.116 546.052 122.697 546.284Z" fill="#455A64"/>
<path d="M85.154 535.223C84.1153 534.407 83.4311 533.221 83.2433 531.913C82.8239 530.661 82.9109 529.294 83.4855 528.105C83.6873 528.105 83.4855 529.801 83.9296 531.752C84.3736 533.703 85.3155 535.089 85.154 535.223Z" fill="#455A64"/>
<path d="M88.8817 528.778C89.1123 529.98 88.9908 531.223 88.5318 532.357C88.2815 533.554 87.7039 534.658 86.8633 535.546C87.0701 534.383 87.404 533.246 87.859 532.156C88.0906 530.999 88.4331 529.868 88.8817 528.778Z" fill="#455A64"/>
<path d="M183.974 537.901C184.479 538.884 184.772 539.961 184.836 541.063C185.117 542.13 185.176 543.243 185.011 544.333C184.506 543.35 184.208 542.274 184.136 541.171C183.846 540.106 183.791 538.99 183.974 537.901Z" fill="#455A64"/>
<path d="M187.58 536.219C187.903 537.318 188.008 538.47 187.889 539.61C187.983 540.751 187.846 541.9 187.486 542.987C187.163 541.888 187.058 540.736 187.176 539.596C187.083 538.455 187.22 537.306 187.58 536.219Z" fill="#455A64"/>
<path d="M170.896 291.644C170.928 291.957 170.928 292.273 170.896 292.586C170.896 293.285 170.828 294.187 170.788 295.277C170.694 297.645 170.492 301.063 170.182 305.288C169.563 313.738 168.406 325.391 166.536 338.188C164.666 350.985 162.499 362.489 160.723 370.778C159.862 374.923 159.135 378.273 158.597 380.574C158.328 381.678 158.126 382.552 157.964 383.265C157.906 383.579 157.816 383.885 157.695 384.18C157.717 383.859 157.762 383.54 157.83 383.225C157.951 382.552 158.126 381.651 158.328 380.534C158.799 378.125 159.445 374.788 160.238 370.697C161.826 362.382 163.952 350.877 165.836 338.094C167.72 325.311 168.944 313.698 169.685 305.261C170.034 301.103 170.317 297.712 170.519 295.277C170.613 294.147 170.694 293.245 170.748 292.586C170.764 292.267 170.814 291.952 170.896 291.644Z" fill="#455A64"/>
<path d="M197.915 292.545C197.697 292.608 197.469 292.636 197.242 292.626L195.305 292.72C193.609 292.801 191.16 292.868 188.133 292.909C182.091 293.016 173.735 293.003 164.504 292.747C155.273 292.491 146.931 292.034 140.902 291.59C137.888 291.375 135.52 291.173 133.771 291.011L131.833 290.796C131.604 290.789 131.377 290.749 131.16 290.675C131.384 290.651 131.609 290.651 131.833 290.675L133.784 290.742L140.929 291.106C146.971 291.415 155.314 291.805 164.531 292.061C173.748 292.317 182.024 292.397 188.133 292.424H195.291H197.242C197.471 292.432 197.698 292.473 197.915 292.545Z" fill="#455A64"/>
<path d="M176.035 291.321C176.099 292.082 176.099 292.847 176.035 293.609C176.035 295.196 175.914 297.295 175.82 299.839C175.618 305.086 175.295 312.353 174.891 320.372C174.676 324.409 174.515 328.19 174.245 331.689C174.11 334.814 173.307 337.875 171.891 340.664C170.897 342.544 169.408 344.117 167.585 345.212C167.092 345.499 166.568 345.729 166.024 345.898C165.647 346.006 165.445 346.046 165.445 346.019C166.132 345.706 166.801 345.356 167.45 344.97C169.163 343.83 170.553 342.268 171.487 340.435C172.796 337.679 173.528 334.684 173.64 331.635C173.869 328.177 174.003 324.342 174.219 320.332C174.622 312.258 175.026 305.06 175.362 299.812C175.537 297.269 175.672 295.183 175.779 293.595C175.801 292.831 175.886 292.071 176.035 291.321Z" fill="#455A64"/>
<path d="M141.44 306.244C141.513 306.761 141.513 307.287 141.44 307.805C141.329 309.225 141.081 310.63 140.7 312.003C139.437 316.562 136.953 320.689 133.515 323.938C130.04 327.16 125.741 329.358 121.095 330.289C119.704 330.573 118.289 330.731 116.87 330.76C116.351 330.795 115.831 330.759 115.322 330.653C117.228 330.466 119.123 330.183 121.001 329.805C125.5 328.775 129.646 326.572 133.016 323.419C136.387 320.265 138.862 316.275 140.189 311.855C140.705 310.008 141.123 308.135 141.44 306.244Z" fill="#455A64"/>
<path d="M205.652 331.568C205.29 331.533 204.936 331.442 204.602 331.298C203.672 330.984 202.771 330.588 201.911 330.114C200.603 329.419 199.368 328.594 198.224 327.652C195.411 325.343 193.164 322.42 191.658 319.107C191.035 317.766 190.553 316.363 190.218 314.923C189.974 313.957 189.826 312.97 189.774 311.976C189.707 311.615 189.707 311.246 189.774 310.886C189.895 310.886 190.016 312.42 190.689 314.801C191.089 316.187 191.602 317.537 192.223 318.838C193.007 320.418 193.935 321.922 194.995 323.332C196.081 324.719 197.298 325.999 198.628 327.154C199.726 328.093 200.901 328.939 202.14 329.684C204.239 330.949 205.706 331.46 205.652 331.568Z" fill="#455A64"/>
<path d="M151.774 310.657C151.787 310.859 151.787 311.061 151.774 311.263C151.774 311.693 151.653 312.272 151.546 313.025C151.33 314.613 151.021 316.887 150.617 319.753C149.81 325.633 148.545 334.138 146.89 344.633C143.58 365.611 138.534 394.528 132.008 426.27C125.482 458.013 118.659 486.58 113.398 507.154C110.707 517.448 108.581 525.764 107.006 531.482C106.213 534.322 105.661 536.528 105.176 538.076C104.975 538.803 104.8 539.421 104.692 539.785C104.584 540.148 104.49 540.363 104.49 540.363L104.611 539.771C104.719 539.341 104.867 538.776 105.042 538.036C105.432 536.488 106.011 534.268 106.737 531.415C108.231 525.669 110.357 517.34 112.914 507.033C118.054 486.432 124.768 457.865 131.321 426.122C137.874 394.38 142.961 365.503 146.392 344.553C148.114 334.07 149.46 325.58 150.348 319.713C150.806 316.806 151.169 314.532 151.411 312.985C151.532 312.231 151.64 311.639 151.707 311.222C151.774 310.805 151.774 310.657 151.774 310.657Z" fill="#455A64"/>
<path d="M176.386 546.109C176.386 546.109 176.386 545.921 176.386 545.531C176.386 545.141 176.453 544.575 176.507 543.862C176.628 542.369 176.816 540.202 177.045 537.444C177.543 531.833 178.27 523.786 179.158 513.842C180.934 493.927 183.719 466.423 185.886 435.972C186.922 420.754 187.635 406.221 187.931 393.008C188.227 379.794 188.133 367.885 187.931 357.888C187.729 347.89 187.164 339.816 186.76 334.232C186.572 331.474 186.41 329.307 186.303 327.814C186.303 327.1 186.222 326.549 186.195 326.132C186.183 325.943 186.183 325.755 186.195 325.566C186.239 325.752 186.267 325.941 186.276 326.132C186.276 326.535 186.384 327.087 186.451 327.8C186.599 329.294 186.801 331.46 187.056 334.205C187.527 339.789 188.052 347.863 188.402 357.874C188.752 367.885 188.859 379.794 188.59 393.021C188.321 406.248 187.635 420.794 186.599 436.08C184.5 466.544 181.634 494.035 179.736 513.95C178.754 523.88 177.96 531.927 177.395 537.524C177.112 540.283 176.884 542.436 176.722 543.929C176.641 544.643 176.588 545.194 176.534 545.598C176.504 545.773 176.454 545.945 176.386 546.109Z" fill="#455A64"/>
<path d="M194.78 542.974C194.78 543.162 184.137 544.494 170.963 545.948C157.79 547.401 147.093 548.424 147.079 548.235C147.066 548.047 157.709 546.701 170.883 545.248C184.056 543.795 194.754 542.826 194.78 542.974Z" fill="#455A64"/>
<path d="M568.385 559.78C568.323 559.585 568.242 559.395 568.143 559.215L567.376 557.574C566.435 555.445 565.678 553.239 565.116 550.98C563.608 545.127 563.084 536.179 565.304 525.562C566.509 519.774 568.086 514.071 570.027 508.486C572.018 502.431 574.333 495.999 576.23 489.056C578.37 481.803 579.4 474.267 579.285 466.706C579.002 458.794 576.661 450.908 574.091 443.05C571.521 435.192 568.87 427.495 568.062 419.758C567.178 412.31 568.676 404.773 572.341 398.228C575.746 391.944 580.038 386.576 583.241 381.018C586.237 375.863 588.446 370.289 589.794 364.481C591.724 356.06 591.866 347.327 590.211 338.847C589.616 335.751 588.715 332.722 587.52 329.805C587.556 330.007 587.61 330.205 587.681 330.397L588.219 332.133C588.888 334.346 589.445 336.592 589.888 338.861C591.413 347.294 591.184 355.952 589.215 364.293C587.845 370.028 585.633 375.529 582.649 380.615C579.446 386.118 575.14 391.46 571.669 397.811C567.916 404.477 566.371 412.16 567.255 419.758C568.062 427.63 570.74 435.367 573.297 443.225C575.853 451.083 578.181 458.888 578.477 466.652C578.596 474.134 577.589 481.591 575.49 488.773C573.62 495.69 571.332 502.122 569.368 508.204C567.441 513.818 565.89 519.554 564.725 525.374C562.572 536.138 563.178 545.113 564.793 550.94C565.397 553.203 566.207 555.405 567.215 557.52C567.578 558.193 567.847 558.731 568.062 559.135C568.135 559.366 568.244 559.584 568.385 559.78Z" fill="#263238"/>
<path d="M578.853 386.522C578.853 386.522 585.366 365.705 573.686 353.501C573.597 353.4 573.48 353.326 573.35 353.289C573.22 353.251 573.082 353.252 572.952 353.29C572.822 353.328 572.706 353.402 572.617 353.504C572.528 353.605 572.469 353.73 572.448 353.864C571.843 357.295 571.076 367.777 578.853 386.522Z" fill="#BF87F8"/>
<path d="M574.979 360.444C575.001 361.738 575.15 363.027 575.424 364.293C575.854 366.984 576.352 370.038 576.904 373.469C577.455 376.901 577.94 380.009 578.37 382.66C578.479 383.948 578.709 385.223 579.057 386.468C579.174 385.176 579.133 383.875 578.936 382.593C578.72 380.211 578.303 376.941 577.711 373.348C577.119 369.756 576.5 366.513 575.989 364.185C575.793 362.904 575.454 361.649 574.979 360.444Z" fill="#263238"/>
<path d="M571.238 435.649C571.238 435.649 567.201 414.201 551.215 408.885C551.09 408.838 550.953 408.828 550.822 408.855C550.69 408.882 550.569 408.945 550.472 409.038C550.375 409.131 550.306 409.249 550.274 409.379C550.241 409.509 550.245 409.646 550.287 409.773C551.35 413.111 555.562 422.732 571.238 435.649Z" fill="#BF87F8"/>
<path d="M555.589 414.429C556.201 415.567 556.931 416.636 557.769 417.619L563.38 425.046L568.964 432.474C569.661 433.56 570.459 434.578 571.346 435.515C570.851 434.318 570.209 433.188 569.435 432.151C568.089 430.146 566.233 427.455 564.053 424.548C561.873 421.642 559.787 419.085 558.253 417.255C557.472 416.218 556.578 415.271 555.589 414.429Z" fill="#263238"/>
<path d="M575.557 489.487C575.557 489.487 577.979 467.796 564.187 458.054C564.078 457.977 563.951 457.932 563.818 457.924C563.686 457.915 563.553 457.942 563.436 458.003C563.318 458.064 563.219 458.156 563.15 458.27C563.08 458.383 563.043 458.513 563.043 458.646C563.083 462.09 564.321 472.572 575.557 489.487Z" fill="#BF87F8"/>
<path d="M566.744 464.62C567.004 465.885 567.392 467.12 567.901 468.307L571.117 477.053C572.315 480.31 573.391 483.27 574.306 485.786C574.639 487.028 575.09 488.236 575.652 489.393C575.526 488.102 575.241 486.832 574.804 485.611C574.131 483.31 573.095 480.229 571.83 476.771C570.566 473.313 569.341 470.299 568.386 468.105C567.969 466.887 567.418 465.718 566.744 464.62Z" fill="#263238"/>
<path d="M563.487 543.634C563.487 543.634 565.129 521.875 550.987 512.685C550.877 512.61 550.749 512.566 550.617 512.56C550.484 512.553 550.353 512.584 550.237 512.648C550.121 512.713 550.025 512.808 549.96 512.924C549.895 513.04 549.864 513.171 549.87 513.304C550.031 516.749 551.646 527.123 563.487 543.634Z" fill="#BF87F8"/>
<path d="M553.799 519.103C554.119 520.362 554.57 521.584 555.144 522.75L558.67 531.362C560.015 534.578 561.159 537.498 562.155 539.987C562.562 541.209 563.075 542.393 563.689 543.526C563.516 542.243 563.186 540.987 562.707 539.785C561.953 537.511 560.809 534.403 559.423 531.052C558.037 527.702 556.732 524.674 555.669 522.521C555.173 521.316 554.546 520.17 553.799 519.103Z" fill="#263238"/>
<path d="M588.273 368.222C588.273 368.222 607.623 358.13 608 341.243C608.005 341.109 607.973 340.976 607.908 340.859C607.842 340.742 607.746 340.645 607.629 340.58C607.512 340.514 607.379 340.483 607.245 340.488C607.111 340.493 606.981 340.536 606.87 340.61C603.963 342.602 595.997 349.451 588.273 368.222Z" fill="#BF87F8"/>
<path d="M603.95 347.042C603.046 347.967 602.239 348.981 601.541 350.07L596.092 357.605L590.615 365.127C589.786 366.118 589.048 367.181 588.408 368.303C589.417 367.479 590.321 366.535 591.099 365.49C592.633 363.647 594.652 361.036 596.778 358.09C598.904 355.143 600.815 352.398 602.039 350.393C602.796 349.349 603.437 348.225 603.95 347.042Z" fill="#263238"/>
<path d="M567.47 412.963C567.47 412.963 587.398 404.055 588.797 387.222C588.813 387.088 588.791 386.952 588.733 386.83C588.675 386.709 588.583 386.606 588.469 386.534C588.355 386.462 588.223 386.424 588.088 386.425C587.953 386.425 587.821 386.463 587.707 386.535C584.72 388.338 576.351 394.69 567.47 412.963Z" fill="#BF87F8"/>
<path d="M584.437 392.765C583.475 393.633 582.605 394.598 581.84 395.645L575.947 402.884L570.026 410.07C569.135 411.002 568.333 412.016 567.631 413.097C568.683 412.324 569.633 411.419 570.457 410.406C572.098 408.67 574.278 406.194 576.579 403.369C578.88 400.543 580.885 397.986 582.298 396.008C583.132 395.012 583.849 393.924 584.437 392.765Z" fill="#263238"/>
<path d="M578.935 462.857C578.935 462.857 592.62 445.849 586.201 430.227C586.16 430.087 586.078 429.963 585.965 429.871C585.852 429.778 585.715 429.722 585.57 429.709C585.425 429.696 585.279 429.727 585.152 429.797C585.024 429.868 584.921 429.976 584.856 430.106C583.079 433.079 578.518 442.552 578.935 462.857Z" fill="#BF87F8"/>
<path d="M584.842 437.156C584.386 438.367 584.053 439.62 583.846 440.897C583.281 443.507 582.608 446.589 581.868 449.98L579.863 459.063C579.496 460.301 579.248 461.572 579.123 462.857C579.714 461.699 580.166 460.475 580.469 459.211C581.128 456.923 581.935 453.721 582.702 450.155C583.469 446.589 584.048 443.359 584.452 441.005C584.721 439.74 584.851 438.449 584.842 437.156Z" fill="#263238"/>
<path d="M565.397 521.579C565.397 521.579 585.164 512.335 586.295 495.488C586.304 495.355 586.277 495.222 586.216 495.103C586.155 494.984 586.062 494.884 585.948 494.815C585.834 494.745 585.703 494.709 585.57 494.709C585.436 494.709 585.305 494.746 585.191 494.815C582.217 496.672 573.955 503.158 565.397 521.579Z" fill="#BF87F8"/>
<path d="M582.004 501.113C581.07 502.004 580.223 502.981 579.474 504.033L573.688 511.326L567.888 518.592C567.019 519.548 566.236 520.58 565.547 521.673C566.579 520.89 567.514 519.987 568.332 518.982C569.947 517.219 572.073 514.703 574.334 511.85C576.594 508.998 578.559 506.333 579.931 504.396C580.744 503.383 581.439 502.282 582.004 501.113Z" fill="#263238"/>
<path d="M525.999 435.771C525.976 435.931 525.976 436.094 525.999 436.255C525.999 436.632 525.999 437.089 525.999 437.6C525.999 438.946 526.134 440.682 526.241 442.889C526.497 447.544 526.847 454.03 527.278 461.727C528.69 469.612 532.66 478.372 538.11 486.876C542.079 493.133 546.183 498.825 549.816 504.113C553.106 508.79 556.065 513.691 558.67 518.78C560.336 522.18 561.687 525.724 562.707 529.37C563.043 530.716 563.313 531.698 563.461 532.398C563.524 532.755 563.619 533.106 563.743 533.447C563.748 533.08 563.708 532.714 563.622 532.357C563.528 531.658 563.313 530.621 563.003 529.303C562.077 525.591 560.774 521.984 559.114 518.538C556.59 513.443 553.693 508.541 550.449 503.871C546.896 498.489 542.765 492.837 538.823 486.607C533.44 478.157 529.404 469.531 527.977 461.767C527.439 454.017 526.982 447.531 526.632 442.929C526.457 440.722 526.309 438.96 526.201 437.654C526.201 437.089 526.107 436.632 526.067 436.309C526.026 435.986 526.026 435.771 525.999 435.771Z" fill="#263238"/>
<path d="M537.773 485.409C537.773 485.409 529.404 465.226 539.94 452.052C540.02 451.944 540.129 451.86 540.254 451.811C540.38 451.761 540.516 451.749 540.649 451.774C540.781 451.799 540.904 451.862 541.002 451.954C541.1 452.046 541.171 452.164 541.205 452.294C542.133 455.658 543.869 466.019 537.773 485.409Z" fill="#BF87F8"/>
<path d="M539.307 459.076C538.932 460.314 538.706 461.593 538.634 462.884C538.338 465.252 538.015 468.536 537.746 472.169C537.477 475.802 537.369 479.099 537.369 481.494C537.288 482.786 537.365 484.082 537.598 485.356C537.834 484.086 537.951 482.798 537.948 481.507C538.123 478.816 538.338 475.694 538.567 472.223C538.795 468.751 539.024 465.616 539.213 462.938C539.369 461.657 539.401 460.363 539.307 459.076Z" fill="#263238"/>
<g opacity="0.3">
<path d="M537.773 485.409C537.773 485.409 529.403 465.226 539.939 452.052C540.019 451.944 540.128 451.86 540.253 451.811C540.379 451.761 540.515 451.749 540.648 451.774C540.78 451.799 540.903 451.862 541.001 451.954C541.099 452.046 541.17 452.164 541.204 452.294C542.132 455.658 543.868 466.019 537.773 485.409Z" fill="black"/>
</g>
<path d="M563.716 533.972C563.716 533.972 556.988 513.209 568.574 500.897C568.665 500.801 568.781 500.732 568.908 500.697C569.036 500.662 569.171 500.662 569.298 500.698C569.426 500.734 569.541 500.804 569.631 500.901C569.722 500.998 569.784 501.117 569.812 501.247C570.471 504.678 571.346 515.147 563.716 533.972Z" fill="#BF87F8"/>
<path d="M567.363 507.841C566.903 509.048 566.578 510.303 566.394 511.582C565.91 513.923 565.318 517.166 564.753 520.759C564.187 524.351 563.811 527.648 563.622 530.03C563.439 531.309 563.412 532.606 563.542 533.892C563.881 532.646 564.101 531.371 564.201 530.083C564.591 527.392 565.049 524.324 565.546 520.893L566.892 511.689C567.182 510.426 567.34 509.136 567.363 507.841Z" fill="#263238"/>
<g opacity="0.3">
<path d="M563.715 533.972C563.715 533.972 556.987 513.21 568.573 500.897C568.664 500.801 568.78 500.732 568.907 500.697C569.035 500.662 569.17 500.662 569.297 500.698C569.425 500.734 569.54 500.804 569.63 500.901C569.721 500.998 569.783 501.118 569.811 501.247C570.47 504.678 571.345 515.147 563.715 533.972Z" fill="black"/>
</g>
<path d="M527.116 460.745C527.116 460.745 509.233 448.231 511.036 431.438C511.05 431.306 511.1 431.181 511.181 431.075C511.261 430.97 511.369 430.889 511.492 430.84C511.616 430.792 511.75 430.778 511.881 430.8C512.011 430.822 512.133 430.88 512.233 430.967C514.83 433.335 521.854 441.153 527.116 460.745Z" fill="#BF87F8"/>
<g opacity="0.3">
<path d="M527.116 460.745C527.116 460.745 509.233 448.231 511.036 431.438C511.05 431.306 511.1 431.181 511.181 431.075C511.261 430.97 511.369 430.889 511.492 430.84C511.616 430.792 511.75 430.778 511.881 430.8C512.011 430.822 512.133 430.88 512.233 430.967C514.83 433.335 521.854 441.153 527.116 460.745Z" fill="black"/>
</g>
<path d="M514.266 437.735C514.618 438.981 515.115 440.183 515.746 441.314C516.768 443.467 518.249 446.414 519.971 449.616C521.693 452.819 523.375 455.672 524.654 457.69C525.282 458.823 526.045 459.876 526.928 460.825C526.44 459.63 525.846 458.482 525.151 457.394C523.806 455.039 522.353 452.281 520.698 449.226L516.257 441.045C515.706 439.878 515.039 438.769 514.266 437.735Z" fill="#263238"/>
<path d="M556.503 513.384C556.503 513.384 534.974 510.02 529.161 494.156C529.113 494.03 529.102 493.894 529.127 493.763C529.153 493.631 529.214 493.509 529.305 493.41C529.395 493.311 529.512 493.239 529.64 493.202C529.769 493.165 529.906 493.165 530.035 493.201C533.386 494.156 543.128 498.098 556.503 513.384Z" fill="#BF87F8"/>
<g opacity="0.3">
<path d="M556.504 513.384C556.504 513.384 534.975 510.02 529.162 494.156C529.114 494.03 529.103 493.894 529.128 493.763C529.154 493.631 529.215 493.509 529.306 493.41C529.396 493.311 529.513 493.239 529.641 493.202C529.77 493.165 529.907 493.165 530.036 493.201C533.387 494.156 543.129 498.098 556.504 513.384Z" fill="black"/>
</g>
<path d="M534.826 498.421C535.692 499.384 536.667 500.242 537.733 500.978C539.603 502.472 542.227 504.463 545.187 506.576C548.148 508.688 550.906 510.518 552.951 511.756C554.009 512.505 555.157 513.115 556.369 513.573C555.408 512.701 554.378 511.909 553.288 511.205C551.094 509.671 548.524 507.854 545.699 505.822L538.109 500.44C537.084 499.661 535.984 498.985 534.826 498.421Z" fill="#263238"/>
<path d="M582.015 553.066L575.826 593.636L551.134 593.595L542.805 553.066H582.015Z" fill="#455A64"/>
<path d="M559.477 566.092C560.149 565.081 560.543 563.912 560.621 562.701C560.689 562.021 560.569 561.336 560.272 560.721C559.975 560.106 559.514 559.585 558.939 559.216C558.284 558.893 557.554 558.754 556.827 558.813C556.099 558.872 555.402 559.128 554.808 559.552C553.573 560.448 552.727 561.781 552.44 563.279C551.803 566.373 552.041 569.584 553.126 572.55C553.741 574.108 554.724 575.493 555.992 576.587C557.309 577.762 558.981 578.463 560.742 578.579C562.5 578.612 564.227 578.109 565.694 577.139C567.105 576.246 568.352 575.117 569.381 573.802C570.444 572.543 571.097 570.989 571.251 569.348C571.315 568.545 571.19 567.739 570.886 566.994C570.582 566.249 570.108 565.585 569.502 565.055C568.875 564.592 568.127 564.319 567.348 564.272C566.57 564.224 565.794 564.403 565.115 564.786C564.468 565.105 563.904 565.57 563.467 566.145C563.03 566.719 562.733 567.387 562.599 568.096C562.412 569.356 562.611 570.643 563.168 571.788C563.725 572.933 564.615 573.884 565.721 574.515C567.542 575.501 569.655 575.806 571.682 575.376C573.181 575.063 574.617 574.504 575.934 573.721C576.753 573.229 577.544 572.69 578.302 572.106C578.578 571.916 578.834 571.7 579.069 571.46C578.772 571.609 578.492 571.789 578.235 571.999C577.683 572.349 576.889 572.9 575.799 573.479C574.496 574.21 573.083 574.724 571.614 574.999C569.683 575.373 567.682 575.054 565.963 574.098C564.96 573.507 564.157 572.631 563.656 571.581C563.155 570.531 562.979 569.355 563.151 568.204C563.269 567.58 563.533 566.993 563.921 566.49C564.309 565.988 564.811 565.584 565.384 565.311C565.961 564.985 566.62 564.833 567.282 564.874C567.943 564.915 568.579 565.146 569.112 565.54C569.635 566.012 570.042 566.599 570.301 567.255C570.56 567.911 570.664 568.618 570.605 569.321C570.441 570.812 569.831 572.218 568.856 573.358C567.867 574.606 566.675 575.68 565.33 576.533C563.983 577.427 562.399 577.896 560.782 577.879C559.171 577.766 557.643 577.123 556.436 576.049C555.243 575.012 554.319 573.701 553.745 572.227C553.191 570.793 552.864 569.281 552.776 567.747C552.654 566.279 552.745 564.802 553.045 563.36C553.285 562.01 554.031 560.802 555.131 559.983C555.632 559.61 556.224 559.381 556.845 559.32C557.466 559.258 558.092 559.366 558.656 559.633C559.15 559.947 559.547 560.394 559.801 560.921C560.056 561.449 560.158 562.037 560.096 562.62C560.034 563.74 559.681 564.825 559.073 565.769C557.95 567.382 556.336 568.59 554.471 569.213C553.061 569.709 551.559 569.888 550.071 569.738C548.807 569.572 547.576 569.209 546.425 568.662L546.64 568.81C546.847 568.945 547.063 569.066 547.286 569.173C548.133 569.593 549.041 569.874 549.977 570.007C551.506 570.206 553.061 570.059 554.525 569.577C556.495 568.952 558.209 567.705 559.41 566.024" fill="#263238"/>
</svg>
