<svg width="213" height="538" viewBox="0 0 213 538" fill="none" xmlns="http://www.w3.org/2000/svg">
<path d="M546.363 616.259C495.201 628.241 428.59 603.563 397.583 561.141L75.2933 120.2C44.2864 77.7773 60.6251 33.6748 111.787 21.6937C162.949 9.71255 229.56 34.3899 260.567 76.8122L582.857 517.754C613.864 560.176 597.525 604.278 546.363 616.259Z" fill="#B8F1DE"/>
<path d="M553.685 752.118C512.022 762.484 457.294 743.098 431.445 708.819L46.8029 198.721C20.9543 164.441 33.7742 128.249 75.4367 117.883C117.099 107.517 171.828 126.903 197.676 161.182L582.319 671.28C608.167 705.56 595.347 741.752 553.685 752.118Z" fill="#C495F7"/>
</svg>
