<svg width="47" height="52" viewBox="0 0 47 52" fill="none" xmlns="http://www.w3.org/2000/svg">
<path d="M45.6679 17.4501V34.55C45.6679 37.35 44.1929 39.9501 41.8083 41.3751L27.2058 49.9501C24.8212 51.3501 21.8712 51.3501 19.4621 49.9501L4.85958 41.3751C2.475 39.9751 1 37.375 1 34.55V17.4501C1 14.6501 2.475 12.05 4.85958 10.625L19.4621 2.05C21.8467 0.65 24.7967 0.65 27.2058 2.05L41.8083 10.625C44.1929 12.05 45.6679 14.6251 45.6679 17.4501Z" stroke="#7EE09D" stroke-width="1.5" stroke-linecap="round" stroke-linejoin="round"/>
<path d="M23.346 23.5C26.5095 23.5 29.0739 20.892 29.0739 17.675C29.0739 14.4579 26.5095 11.8501 23.346 11.8501C20.1826 11.8501 17.6181 14.4579 17.6181 17.675C17.6181 20.892 20.1826 23.5 23.346 23.5Z" stroke="#7EE09D" stroke-width="1.5" stroke-linecap="round" stroke-linejoin="round"/>
<path d="M33.1794 37.65C33.1794 33.15 28.7789 29.5001 23.346 29.5001C17.9131 29.5001 13.5127 33.15 13.5127 37.65" stroke="#7EE09D" stroke-width="1.5" stroke-linecap="round" stroke-linejoin="round"/>
</svg>
