<svg width="180" height="179" viewBox="0 0 180 179" fill="none" xmlns="http://www.w3.org/2000/svg">
<g clip-path="url(#clip0_194_392)">
<path d="M89.5467 0C65.7974 0 43.0209 9.42667 26.2276 26.2062C9.43436 42.9858 0 65.7438 0 89.4737C0 113.204 9.43436 135.962 26.2276 152.741C43.0209 169.521 65.7974 178.947 89.5467 178.947C113.296 178.947 136.073 169.521 152.866 152.741C169.659 135.962 179.093 113.204 179.093 89.4737C179.093 65.7438 169.659 42.9858 152.866 26.2062C136.073 9.42667 113.296 0 89.5467 0Z" fill="url(#paint0_linear_194_392)"/>
<path d="M117.228 44.7368C92.6249 44.7368 89.5468 65.1368 89.5468 65.1368C89.5468 65.1368 86.4798 44.7368 61.8768 44.7368C38.2141 44.7368 31.319 69.5881 34.2069 82.875C41.8184 117.993 89.5468 142.599 89.5468 142.599C89.5468 142.599 137.286 117.993 144.898 82.875C147.775 69.5881 140.868 44.7368 117.228 44.7368Z" fill="white"/>
</g>
<defs>
<linearGradient id="paint0_linear_194_392" x1="89.5467" y1="0" x2="89.5467" y2="178.947" gradientUnits="userSpaceOnUse">
<stop stop-color="#C47DFD"/>
<stop offset="1" stop-color="#97EED1"/>
</linearGradient>
<clipPath id="clip0_194_392">
<rect width="179.093" height="178.947" fill="white"/>
</clipPath>
</defs>
</svg>
