<svg width="27" height="32" viewBox="0 0 27 32" fill="none" xmlns="http://www.w3.org/2000/svg">
<path d="M18.5625 11.8136C18.5625 15.0757 16.2959 17.7202 13.5 17.7202C10.7041 17.7202 8.4375 15.0757 8.4375 11.8136C8.4375 8.55152 10.7041 5.90706 13.5 5.90706C16.2959 5.90706 18.5625 8.55152 18.5625 11.8136Z" fill="white"/>
<path d="M3.375 0.000488281C1.51104 0.000488281 0 1.76346 0 3.9382V27.5645C0 29.7392 1.51104 31.5022 3.375 31.5022H23.625C25.489 31.5022 27 29.7392 27 27.5645V3.9382C27 1.76346 25.489 0.000488281 23.625 0.000488281H3.375ZM23.625 1.96934C24.557 1.96934 25.3125 2.85083 25.3125 3.9382V27.5645C25.3125 28.6518 24.557 29.5333 23.625 29.5333V27.5645C23.625 25.5956 21.9375 19.6891 13.5 19.6891C5.0625 19.6891 3.375 25.5956 3.375 27.5645V29.5333C2.44302 29.5333 1.6875 28.6518 1.6875 27.5645V3.9382C1.6875 2.85083 2.44302 1.96934 3.375 1.96934H23.625Z" fill="white"/>
</svg>
